<?xml version="1.0" standalone="no"?>
<!DOCTYPE svg PUBLIC "-//W3C//DTD SVG 1.1//EN" "http://www.w3.org/Graphics/SVG/1.1/DTD/svg11.dtd" >
<svg xmlns="http://www.w3.org/2000/svg">
<metadata></metadata>
<defs>
<font id="al_kashiregular" horiz-adv-x="1114" >
<font-face units-per-em="2048" ascent="1536" descent="-512" />
<missing-glyph horiz-adv-x="716" />
<glyph horiz-adv-x="2048" />
<glyph horiz-adv-x="2048" />
<glyph unicode="&#xd;" horiz-adv-x="2048" />
<glyph unicode=" "  horiz-adv-x="716" />
<glyph unicode="&#x09;" horiz-adv-x="716" />
<glyph unicode="&#xa0;" horiz-adv-x="716" />
<glyph unicode="!" horiz-adv-x="477" d="M137 0v250h266v-250h-266zM137 496v1030h266v-1030h-266z" />
<glyph unicode="&#x22;" horiz-adv-x="796" d="M137 1114v569h199v-569h-199zM457 1114v569h198v-569h-198z" />
<glyph unicode="#" horiz-adv-x="1021" d="M59 492v129h179l61 325h-240v129h263l81 436l132 -20l-76 -414h203l79 434l131 -20l-77 -414l166 2l2 -133h-193l-59 -323l250 2l2 -133h-277l-92 -500l-129 20l88 480h-205l-92 -500l-129 20l88 480h-156zM373 623h205l59 323h-203z" />
<glyph unicode="$" horiz-adv-x="1060" d="M70 371l262 37q3 -24 12.5 -51t39 -62t73.5 -49v442q-113 42 -193.5 105t-120 133.5t-53 141t-2.5 138.5q22 139 124.5 237t244.5 118v157h129v-159q72 -12 135 -48t106.5 -84.5t72 -96t44.5 -93.5l-248 -92v-2q-39 96 -110 133v-344q121 -46 206.5 -115t127.5 -147 t56 -155t3 -153q-25 -153 -134.5 -261t-258.5 -130v-178h-129v176q-77 9 -141.5 41.5t-106.5 75.5t-73 96t-46 99.5t-20 89.5zM348 1161q-15 -97 109 -172v293q-45 -17 -74 -50t-35 -71zM586 248q55 19 90 63.5t43 94.5q10 63 -24.5 121t-108.5 104v-383z" />
<glyph unicode="%" horiz-adv-x="1665" d="M82 1198q0 126 88 214.5t213 88.5q126 0 214.5 -88.5t88.5 -214.5q0 -125 -88.5 -213t-214.5 -88q-125 0 -213 88.5t-88 212.5zM236 1198q0 -62 42 -103.5t103 -41.5q62 0 104.5 42t42.5 103q0 62 -43 105t-104 43t-103 -43t-42 -105zM383 109l659 1374l240 -115 l-659 -1374zM985 307q0 126 88 214.5t213 88.5q126 0 214.5 -88.5t88.5 -214.5q0 -125 -88.5 -213t-214.5 -88q-124 0 -212.5 88t-88.5 213zM1139 307q0 -61 41.5 -103t103.5 -42t105 42t43 103t-43 104.5t-105 43.5q-61 0 -103 -43t-42 -105z" />
<glyph unicode="&#x26;" horiz-adv-x="1130" d="M109 297q-24 214 206 502l-28 47q-31 43 -56.5 93t-44.5 114t-21 125t21 125t74 114q110 112 255 116.5t249 -99.5q51 -51 77.5 -120.5t25.5 -151t-46.5 -175t-132.5 -180.5l-35 -35l109 -166q8 44 8 101h270q0 -201 -96 -385l123 -193l-227 -145l-72 114 q-38 -33 -86 -59q-101 -57 -204.5 -57.5t-192.5 53.5q-159 98 -176 262zM373 336q6 -36 49 -64q49 -30 123 11q29 15 67 53l-145 225q-101 -146 -94 -225zM432.5 1159.5q8.5 -43.5 27.5 -85t40 -70.5q49 51 71.5 98.5t19.5 81.5t-24 55t-49 21q-38 0 -72 -37 q-22 -20 -13.5 -63.5z" />
<glyph unicode="'" horiz-adv-x="466" d="M43 1212l199 535l184 -78l-203 -534z" />
<glyph unicode="(" horiz-adv-x="700" d="M68 760q0 123 19 238t49.5 200.5t67 160t73 124.5t67 86t49.5 53l19 16l213 -141q-9 -8 -21 -19t-42.5 -47t-57.5 -76t-59.5 -105t-55.5 -135.5t-39 -166t-16 -196.5q0 -104 15.5 -201t38.5 -168.5t54.5 -136.5t58.5 -105.5t56 -75.5t41 -46.5t20 -18.5l-217 -152 q-7 6 -19 17t-46.5 52.5t-66 89.5t-70 127.5t-66 167t-46.5 208t-19 250.5z" />
<glyph unicode=")" horiz-adv-x="737" d="M117 1497l213 141q7 -6 19.5 -17t48 -51.5t68 -87t72.5 -123.5t68.5 -161t48 -199.5t19.5 -238.5q0 -130 -18.5 -250t-48 -209t-65 -166t-71 -128.5t-65 -88.5t-48.5 -54l-18 -16l-217 152q8 7 20 18.5t41.5 46.5t56 75.5t58.5 105.5t55 136.5t38.5 168.5t15.5 201 q0 101 -16 196.5t-39 166t-55.5 135.5t-59.5 105t-57.5 76t-42.5 47t-21 19z" />
<glyph unicode="*" horiz-adv-x="694" d="M68 1255v93h165l-116 116l67 68l117 -119v168h92v-168l117 119l65 -68l-116 -116h166v-93h-166l116 -116l-65 -68l-117 119v-166h-92v164l-117 -117l-67 68l119 116h-168z" />
<glyph unicode="+" horiz-adv-x="935" d="M47 481v267h285v278h266v-278h291v-267h-291v-297h-266v297h-285z" />
<glyph unicode="," horiz-adv-x="446" d="M90 0v266h266v-266l-133 -236l-82 48l92 188h-143z" />
<glyph unicode="-" horiz-adv-x="1118" d="M137 614v267h842v-267h-842z" />
<glyph unicode="." horiz-adv-x="548" d="M137 0v266h266v-266h-266z" />
<glyph unicode="/" horiz-adv-x="942" d="M23 119l659 1374l240 -115l-660 -1374z" />
<glyph unicode="0" d="M137 2v1522h838v-1522h-838zM403 268h306v989h-306v-989z" />
<glyph unicode="1" horiz-adv-x="794" d="M8 1147l379 377h266v-1522h-266v1145l-190 -189z" />
<glyph unicode="2" horiz-adv-x="1116" d="M86 2l565 879q35 58 47 79t23.5 53.5t11.5 61.5q0 91 -43.5 142t-107.5 51q-34 0 -68 -13t-62.5 -37t-42 -64t-3.5 -89l-259 -78q-14 41 -14.5 96t12 117t46 121.5t83 107.5t129.5 77.5t179 29.5q90 0 163.5 -31.5t119.5 -80.5t77.5 -112t44 -122t12.5 -115 q0 -144 -110 -311q-63 -96 -181.5 -274t-146.5 -220h438v-268h-913z" />
<glyph unicode="3" d="M137 2v266h572v457h-457v266h457v266h-572v267h838v-1522h-838z" />
<glyph unicode="4" horiz-adv-x="1034" d="M14 285l572 1237h266v-971h76v-266h-76v-285h-266v285h-572zM428 551h158v340z" />
<glyph unicode="5" horiz-adv-x="1112" d="M137 2v266h570v457h-570v799h836v-267h-570v-266h570v-989h-836z" />
<glyph unicode="6" horiz-adv-x="1097" d="M137 0v1522h754v-267h-488v-266h570v-989h-836zM403 266h304v457h-304v-457z" />
<glyph unicode="7" horiz-adv-x="1058" d="M125 1257v267h911l-624 -1522h-285l512 1255h-514z" />
<glyph unicode="8" d="M137 2v1522h838v-1522h-838zM403 268h306v457h-306v-457zM403 991h306v266h-306v-266z" />
<glyph unicode="9" horiz-adv-x="1112" d="M137 0v266h570v457h-570v799h836v-1522h-836zM403 989h304v266h-304v-266z" />
<glyph unicode=":" horiz-adv-x="446" d="M137 0v266h266v-266h-266zM137 813v266h266v-266h-266z" />
<glyph unicode=";" horiz-adv-x="456" d="M88 0v266h266v-266l-133 -236l-82 48l92 188h-143zM88 813v266h266v-266h-266z" />
<glyph unicode="&#x3c;" horiz-adv-x="856" d="M16 537l562 563l188 -189l-373 -372l373 -365l-188 -188z" />
<glyph unicode="=" horiz-adv-x="1052" d="M137 129v266h842v-266h-842zM137 614v267h842v-267h-842z" />
<glyph unicode="&#x3e;" horiz-adv-x="856" d="M90 174l373 365l-373 372l189 189l561 -563l-561 -551z" />
<glyph unicode="?" horiz-adv-x="1079" d="M102 1249v269h914v-1043h-774v268h508v506h-648zM242 -2v250h268v-250h-268z" />
<glyph unicode="@" horiz-adv-x="1441" d="M137 0v1530h1192v-1112h-813v733h543v109h-651v-990h651v-270h-922zM788 692h271v189h-271v-189z" />
<glyph unicode="A" d="M137 0v1524h838v-1524h-266v418h-306v-418h-266zM403 686h306v571h-306v-571z" />
<glyph unicode="B" horiz-adv-x="1081" d="M137 0v1526h152q105 0 195 -16t165.5 -50t129 -85t83 -125t29.5 -165q0 -92 -47 -160t-109 -87q44 -13 90.5 -43.5t87.5 -74.5t67 -105t26 -126q0 -87 -30.5 -161t-83 -126t-120 -92t-145 -63.5t-152.5 -35t-149 -11.5h-189zM403 268q81 6 157 34t129.5 78t53.5 109 q0 81 -104 142t-236 69v-432zM403 946q31 0 67.5 9t72 26t59 47t23.5 66q0 78 -68 124t-154 46v-318z" />
<glyph unicode="C" horiz-adv-x="1024" d="M137 0v1524h838v-267h-572v-991h572v-266h-838z" />
<glyph unicode="D" horiz-adv-x="1128" d="M135 0v1524h266q257 -23 424 -176q224 -205 224 -592q0 -373 -218 -576q-172 -157 -430 -180h-266zM401 268q155 21 252 109q131 125 131 379q0 268 -137 393q-91 84 -246 106v-987z" />
<glyph unicode="E" horiz-adv-x="1095" d="M135 0v1524h838v-267h-572v-305h570v-266h-570v-418h572v-268h-838z" />
<glyph unicode="F" horiz-adv-x="1001" d="M135 0v1524h838v-267h-572v-305h570v-266h-570v-686h-266z" />
<glyph unicode="G" d="M100 860q0 68 4.5 132.5t18 140t34.5 140t56.5 126t82.5 105t114.5 69.5t148.5 26q75 0 139 -20.5t107 -51t78.5 -73.5t55.5 -81t34.5 -80t19.5 -64.5t8 -40.5l-245 -76q-1 9 -4 23.5t-17 52t-32.5 66t-54 52t-79.5 23.5q-50 0 -88 -34.5t-58.5 -85t-33.5 -119.5 t-16.5 -123.5t-3.5 -112.5q0 -60 3.5 -123.5t16 -149.5t33.5 -150.5t60 -110.5t91 -46q44 0 78.5 17t55.5 47t35.5 63t20.5 73.5t8.5 69.5t2.5 60h-192v234h442q0 -71 2 -150v-20q0 -69 -9 -140q-10 -81 -25.5 -157.5t-50 -144t-80.5 -118t-118 -79.5t-163 -29 q-90 0 -163.5 33t-122.5 86t-86 129.5t-57 151t-32 164t-15.5 157t-3.5 139.5z" />
<glyph unicode="H" horiz-adv-x="1181" d="M133 0v1524h266v-574h381v574h267v-1524h-267v682h-381v-682h-266z" />
<glyph unicode="I" horiz-adv-x="526" d="M133 0v1526h266v-1526h-266z" />
<glyph unicode="J" horiz-adv-x="1050" d="M55 567v277h267v-277v-18.5t2.5 -45.5t8 -65t17.5 -69t28.5 -65t44 -45.5t62.5 -18.5t63.5 13.5t47 34t32 50.5t21 58t11.5 61.5t5 56t1 47.5q0 428 -2 694l-480 54v274l480 -53h266v-973v-4q0 -31 -1 -57.5t-9.5 -90.5t-24 -115.5t-49.5 -114.5t-80.5 -106t-121.5 -72.5 t-169 -29.5q-65 0 -121 19.5t-96 50.5t-72.5 75.5t-53 89t-36 96t-23 92.5t-12 82.5t-5.5 61.5t-1 33z" />
<glyph unicode="K" horiz-adv-x="1150" d="M131 2v1524h266v-531l340 529h320l-436 -674l495 -850h-307l-412 702v-700h-266z" />
<glyph unicode="L" horiz-adv-x="919" d="M133 2v1524h266v-1258h496v-266h-762z" />
<glyph unicode="M" horiz-adv-x="1368" d="M131 4v1522h266l287 -813l285 813h266v-1524h-266v823l-287 -762l-285 762v-821h-266z" />
<glyph unicode="N" horiz-adv-x="1101" d="M131 2v1524h266l305 -815v815h267v-1524h-267l-305 811v-811h-266z" />
<glyph unicode="O" horiz-adv-x="1101" d="M94 764q0 118 14 227.5t47.5 216t83.5 184t129 125.5t177 48q96 0 175 -46t131.5 -122.5t88.5 -180t52 -215t16 -231.5q0 -154 -27 -294t-80.5 -256.5t-144 -185.5t-207.5 -69q-80 0 -148.5 34t-117.5 93t-86 136t-59 168t-33 183t-11 185zM358 764q0 -90 13.5 -182.5 t37.5 -170t61.5 -126.5t80.5 -49q55 0 100 79.5t68.5 200.5t23.5 252q0 129 -22.5 248t-68 199.5t-103.5 80.5q-46 0 -84 -48.5t-60.5 -126.5t-34.5 -170.5t-12 -186.5z" />
<glyph unicode="P" horiz-adv-x="1013" d="M131 2v1524h840v-838h-572v-686h-268zM399 954h303v306h-303v-306z" />
<glyph unicode="Q" horiz-adv-x="1060" d="M106 0v1526h840v-1526h-270l-53 -264h-267l54 264h-304zM375 268h303v992h-303v-992z" />
<glyph unicode="R" horiz-adv-x="1079" d="M129 0v1526h838v-838h-224l224 -688h-271l-223 688h-78v-688h-266zM395 954h305v306h-305v-306z" />
<glyph unicode="S" horiz-adv-x="1103" d="M92 371l262 37q3 -22 11.5 -44.5t27.5 -54t57.5 -51.5t90.5 -20q81 0 135.5 51t64.5 117q3 15 3 30q0 68 -53 128q-64 72 -191 118q-119 41 -203.5 104.5t-126.5 135.5q-42 70 -56 142q-8 40 -8 80q0 31 5 62q25 155 147 257t283 102q70 0 134 -22.5t110 -57t84 -80 t61 -87t37 -81.5l-248 -92v-2q-2 6 -7.5 18t-21 36.5t-34.5 44t-50 35t-65 15.5q-68 0 -115 -40t-55 -91q-1 -10 -2 -19q0 -54 49 -104q57 -60 166 -98q128 -45 219 -114.5t135.5 -148.5t59.5 -158q8 -44 9 -87q0 -35 -6 -70q-28 -170 -159 -283.5t-301 -113.5 q-89 0 -164.5 29t-124 73.5t-84.5 101t-53 106.5t-23 96z" />
<glyph unicode="T" horiz-adv-x="1036" d="M61 1260v266h914v-266h-324v-1260h-266v1260h-324z" />
<glyph unicode="U" horiz-adv-x="1175" d="M129 0v1526h266v-1258h381v1258h268v-1526h-915z" />
<glyph unicode="V" horiz-adv-x="1153" d="M20 1532h277l281 -815l280 815h275l-555 -1559z" />
<glyph unicode="W" horiz-adv-x="1628" d="M39 1532h278l279 -789l219 568l219 -568l281 789h274l-555 -1559l-219 617l-219 -617h-2z" />
<glyph unicode="X" horiz-adv-x="1214" d="M70 1501h327l205 -426l191 426h321l-344 -731l393 -770h-327l-224 463l-206 -463h-322l360 766z" />
<glyph unicode="Y" horiz-adv-x="1122" d="M74 1501h266l262 -489l246 489h264l-371 -770v-731h-282v731z" />
<glyph unicode="Z" horiz-adv-x="1253" d="M109 2l598 1258h-562v266h992l-600 -1258h600v-266h-1028z" />
<glyph unicode="[" horiz-adv-x="780" d="M139 -266v2035h533v-266h-266v-1503h266v-266h-533z" />
<glyph unicode="\" horiz-adv-x="942" d="M23 1378l239 115l660 -1374l-240 -115z" />
<glyph unicode="]" horiz-adv-x="780" d="M104 0h265v1503h-265v266h531v-2035h-531v266z" />
<glyph unicode="^" horiz-adv-x="827" d="M68 1237l346 160l340 -160l-47 -76l-295 135l-297 -135z" />
<glyph unicode="_" horiz-adv-x="1736" d="M137 2h1460v-266h-1460v266z" />
<glyph unicode="`" horiz-adv-x="614" d="M20 1360l43 90l525 -225l-43 -88z" />
<glyph unicode="a" d="M137 0v1524h838v-1524h-266v418h-306v-418h-266zM403 686h306v571h-306v-571z" />
<glyph unicode="b" horiz-adv-x="1081" d="M137 0v1526h152q105 0 195 -16t165.5 -50t129 -85t83 -125t29.5 -165q0 -92 -47 -160t-109 -87q44 -13 90.5 -43.5t87.5 -74.5t67 -105t26 -126q0 -87 -30.5 -161t-83 -126t-120 -92t-145 -63.5t-152.5 -35t-149 -11.5h-189zM403 268q81 6 157 34t129.5 78t53.5 109 q0 81 -104 142t-236 69v-432zM403 946q31 0 67.5 9t72 26t59 47t23.5 66q0 78 -68 124t-154 46v-318z" />
<glyph unicode="c" horiz-adv-x="1024" d="M137 0v1524h838v-267h-572v-991h572v-266h-838z" />
<glyph unicode="d" horiz-adv-x="1128" d="M135 0v1524h266q257 -23 424 -176q224 -205 224 -592q0 -373 -218 -576q-172 -157 -430 -180h-266zM401 268q155 21 252 109q131 125 131 379q0 268 -137 393q-91 84 -246 106v-987z" />
<glyph unicode="e" horiz-adv-x="1095" d="M135 0v1524h838v-267h-572v-305h570v-266h-570v-418h572v-268h-838z" />
<glyph unicode="f" horiz-adv-x="1001" d="M135 0v1524h838v-267h-572v-305h570v-266h-570v-686h-266z" />
<glyph unicode="g" d="M100 860q0 68 4.5 132.5t18 140t34.5 140t56.5 126t82.5 105t114.5 69.5t148.5 26q75 0 139 -20.5t107 -51t78.5 -73.5t55.5 -81t34.5 -80t19.5 -64.5t8 -40.5l-245 -76q-1 9 -4 23.5t-17 52t-32.5 66t-54 52t-79.5 23.5q-50 0 -88 -34.5t-58.5 -85t-33.5 -119.5 t-16.5 -123.5t-3.5 -112.5q0 -60 3.5 -123.5t16 -149.5t33.5 -150.5t60 -110.5t91 -46q44 0 78.5 17t55.5 47t35.5 63t20.5 73.5t8.5 69.5t2.5 60h-192v234h442q0 -71 2 -150v-20q0 -69 -9 -140q-10 -81 -25.5 -157.5t-50 -144t-80.5 -118t-118 -79.5t-163 -29 q-90 0 -163.5 33t-122.5 86t-86 129.5t-57 151t-32 164t-15.5 157t-3.5 139.5z" />
<glyph unicode="h" horiz-adv-x="1181" d="M133 0v1524h266v-574h381v574h267v-1524h-267v682h-381v-682h-266z" />
<glyph unicode="i" horiz-adv-x="526" d="M133 0v1526h266v-1526h-266z" />
<glyph unicode="j" horiz-adv-x="1050" d="M55 567v277h267v-277v-18.5t2.5 -45.5t8 -65t17.5 -69t28.5 -65t44 -45.5t62.5 -18.5t63.5 13.5t47 34t32 50.5t21 58t11.5 61.5t5 56t1 47.5q0 428 -2 694l-480 54v274l480 -53h266v-973v-4q0 -31 -1 -57.5t-9.5 -90.5t-24 -115.5t-49.5 -114.5t-80.5 -106t-121.5 -72.5 t-169 -29.5q-65 0 -121 19.5t-96 50.5t-72.5 75.5t-53 89t-36 96t-23 92.5t-12 82.5t-5.5 61.5t-1 33z" />
<glyph unicode="k" horiz-adv-x="1150" d="M131 2v1524h266v-531l340 529h320l-436 -674l495 -850h-307l-412 702v-700h-266z" />
<glyph unicode="l" horiz-adv-x="919" d="M133 2v1524h266v-1258h496v-266h-762z" />
<glyph unicode="m" horiz-adv-x="1368" d="M131 4v1522h266l287 -813l285 813h266v-1524h-266v823l-287 -762l-285 762v-821h-266z" />
<glyph unicode="n" horiz-adv-x="1101" d="M131 2v1524h266l305 -815v815h267v-1524h-267l-305 811v-811h-266z" />
<glyph unicode="o" horiz-adv-x="1101" d="M94 764q0 118 14 227.5t47.5 216t83.5 184t129 125.5t177 48q96 0 175 -46t131.5 -122.5t88.5 -180t52 -215t16 -231.5q0 -154 -27 -294t-80.5 -256.5t-144 -185.5t-207.5 -69q-80 0 -148.5 34t-117.5 93t-86 136t-59 168t-33 183t-11 185zM358 764q0 -90 13.5 -182.5 t37.5 -170t61.5 -126.5t80.5 -49q55 0 100 79.5t68.5 200.5t23.5 252q0 129 -22.5 248t-68 199.5t-103.5 80.5q-46 0 -84 -48.5t-60.5 -126.5t-34.5 -170.5t-12 -186.5z" />
<glyph unicode="p" horiz-adv-x="1013" d="M131 2v1524h840v-838h-572v-686h-268zM399 954h303v306h-303v-306z" />
<glyph unicode="q" horiz-adv-x="1060" d="M106 0v1526h840v-1526h-270l-53 -264h-267l54 264h-304zM375 268h303v992h-303v-992z" />
<glyph unicode="r" horiz-adv-x="1079" d="M129 0v1526h838v-838h-224l224 -688h-271l-223 688h-78v-688h-266zM395 954h305v306h-305v-306z" />
<glyph unicode="s" horiz-adv-x="1103" d="M92 371l262 37q3 -22 11.5 -44.5t27.5 -54t57.5 -51.5t90.5 -20q81 0 135.5 51t64.5 117q3 15 3 30q0 68 -53 128q-64 72 -191 118q-119 41 -203.5 104.5t-126.5 135.5q-42 70 -56 142q-8 40 -8 80q0 31 5 62q25 155 147 257t283 102q70 0 134 -22.5t110 -57t84 -80 t61 -87t37 -81.5l-248 -92v-2q-2 6 -7.5 18t-21 36.5t-34.5 44t-50 35t-65 15.5q-68 0 -115 -40t-55 -91q-1 -10 -2 -19q0 -54 49 -104q57 -60 166 -98q128 -45 219 -114.5t135.5 -148.5t59.5 -158q8 -44 9 -87q0 -35 -6 -70q-28 -170 -159 -283.5t-301 -113.5 q-89 0 -164.5 29t-124 73.5t-84.5 101t-53 106.5t-23 96z" />
<glyph unicode="t" horiz-adv-x="1036" d="M61 1260v266h914v-266h-324v-1260h-266v1260h-324z" />
<glyph unicode="u" horiz-adv-x="1175" d="M129 0v1526h266v-1258h381v1258h268v-1526h-915z" />
<glyph unicode="v" horiz-adv-x="1153" d="M20 1532h277l281 -815l280 815h275l-555 -1559z" />
<glyph unicode="w" horiz-adv-x="1628" d="M39 1532h278l279 -789l219 568l219 -568l281 789h274l-555 -1559l-219 617l-219 -617h-2z" />
<glyph unicode="x" horiz-adv-x="1214" d="M70 1501h327l205 -426l191 426h321l-344 -731l393 -770h-327l-224 463l-206 -463h-322l360 766z" />
<glyph unicode="y" horiz-adv-x="1122" d="M74 1501h266l262 -489l246 489h264l-371 -770v-731h-282v731z" />
<glyph unicode="z" horiz-adv-x="1253" d="M109 2l598 1258h-562v266h992l-600 -1258h600v-266h-1028z" />
<glyph unicode="{" horiz-adv-x="737" d="M121 760q0 123 19 238t49.5 200.5t67 160t73 124.5t67 86t49.5 53l19 16l213 -141q-9 -8 -21 -19t-42.5 -47t-57.5 -76t-59.5 -105t-55.5 -135.5t-39 -166t-16 -196.5q0 -104 15.5 -201t38.5 -168.5t55 -136.5t58.5 -105.5t56 -75.5t41.5 -46.5t20 -18.5l-217 -152 q-7 6 -19 17t-46.5 52.5t-66.5 89.5t-70.5 127.5t-66 167t-46.5 208t-19 250.5z" />
<glyph unicode="|" horiz-adv-x="526" d="M133 -137v1800h266v-1800h-266z" />
<glyph unicode="}" horiz-adv-x="737" d="M117 1497l213 141q7 -6 19.5 -17t48 -51.5t68 -87t72.5 -123.5t68.5 -161t48 -199.5t19.5 -238.5q0 -130 -18.5 -250t-48 -209t-65 -166t-71 -128.5t-65 -88.5t-48.5 -54l-18 -16l-217 152q8 7 20 18.5t41.5 46.5t56 75.5t58.5 105.5t55 136.5t38.5 168.5t15.5 201 q0 101 -16 196.5t-39 166t-55.5 135.5t-59.5 105t-57.5 76t-42.5 47t-21 19z" />
<glyph unicode="~" horiz-adv-x="739" d="M2 1311l10 7q10 8 28 18.5t42 21.5t55.5 17.5t65 6.5t73.5 -12.5t78 -38.5q53 -36 106 -49.5t91 -8t69 16t46 22.5l16 11l57 -74q-7 -6 -20.5 -16t-56 -29.5t-85.5 -27.5t-104.5 3.5t-118.5 49.5q-52 35 -101 48t-82.5 7t-60 -17.5t-38.5 -23.5l-13 -12q-1 1 -2.5 3.5 t-6.5 9t-9.5 13t-10.5 15t-11 15t-9 12.5l-6 9z" />
<glyph unicode="&#xa1;" horiz-adv-x="477" d="M109 0v1030h266v-1030h-266zM109 1276v250h266v-250h-266z" />
<glyph unicode="&#xa3;" horiz-adv-x="1183" d="M61 547v129h242v223h-242v129h242v496l266 -4v-492h297v-129h-297v-223h297v-129h-297v-279h572v-268h-838v547h-242z" />
<glyph unicode="&#xa4;" horiz-adv-x="1015" d="M111 903l90 90l137 -137q80 57 176 57q89 0 166 -49l135 135l96 -96l-137 -137q43 -72 43 -156q0 -93 -51 -166l139 -135l-98 -98l-141 137q-70 -39 -152 -39q-87 0 -160 45l-147 -153l-92 92l147 151q-49 74 -49 166q0 83 39 150zM367 610q0 -62 41.5 -103.5 t103.5 -41.5t104.5 42t42.5 103q0 62 -43 105t-104 43t-103 -43t-42 -105z" />
<glyph unicode="&#xa5;" horiz-adv-x="1136" d="M61 1464l256 140l254 -498l240 506l260 -131l-336 -709h238v-129h-238v-184h238v-129h-238v-330h-319l-2 330h-246v129h246v184h-246v129h246z" />
<glyph unicode="&#xa7;" horiz-adv-x="1136" d="M109 -55l262 37q3 -16 7.5 -33t17.5 -43.5t32 -45.5t53 -33.5t76 -14.5q81 0 136 51t65 117q12 72 -34.5 137t-143.5 112q-215 22 -339 146.5t-124 310.5q0 244 182 371q-107 85 -147.5 193.5t-24.5 215.5q25 155 147 257t283 102q70 0 134 -22.5t110 -57t84 -80t61 -87 t37 -81.5l-248 -92v-2q-4 11 -14 29.5t-31 48.5t-56.5 50.5t-76.5 20.5q-68 0 -115 -40t-55 -91q-10 -64 47 -123.5t166 -97.5q86 -30 156.5 -72.5t117 -89t80.5 -100t48.5 -106t20 -107t-4.5 -102.5q-27 -166 -139 -275q90 -90 122.5 -198t16.5 -213q-28 -170 -159.5 -284 t-301.5 -114q-89 0 -164.5 29t-124 73.5t-84 101t-52.5 106.5t-23 96zM391 694q0 -20 4 -37.5t9.5 -31t17 -26.5t20 -21.5t26 -17.5t27 -14t31 -12.5t30 -10t32.5 -9t30 -8.5q146 57 146 211q0 65 -59 111t-134 46t-127.5 -49t-52.5 -131z" />
<glyph unicode="&#xa8;" horiz-adv-x="925" d="M137 1180v94l170 -2v-92h-170zM614 1180v94l170 -2v-92h-170z" />
<glyph unicode="&#xab;" horiz-adv-x="1507" d="M55 537l561 563l189 -189l-373 -372l373 -365l-189 -188zM649 537l561 563l189 -189l-373 -372l373 -365l-189 -188z" />
<glyph unicode="&#xac;" horiz-adv-x="1624" d="M25 614v267h1460v-265h2v-266h-258v264h-1204z" />
<glyph unicode="&#xad;" horiz-adv-x="1118" d="M137 614v267h842v-267h-842z" />
<glyph unicode="&#xb0;" horiz-adv-x="792" d="M94 1280q0 126 88 214.5t213 88.5q126 0 214.5 -88.5t88.5 -214.5q0 -125 -88.5 -213t-214.5 -88q-125 0 -213 88.5t-88 212.5zM248 1280q0 -62 42 -103.5t103 -41.5q62 0 105 42t43 103t-43 104t-105 43q-61 0 -103 -42.5t-42 -104.5z" />
<glyph unicode="&#xb1;" horiz-adv-x="1087" d="M141 0v272h840v-272h-840zM143 709v266h285v278h266v-278h291v-266h-291v-297h-266v297h-285z" />
<glyph unicode="&#xb2;" horiz-adv-x="557" d="M88 983l227 356q33 50 33 78q0 37 -17 57.5t-42 20.5q-31 0 -55 -22t-17 -60l-104 -31q-4 21 -5.5 48.5t10.5 58t30.5 56t55.5 42.5t85 17q45 0 79.5 -18.5t52.5 -48t27 -60.5t9 -60q0 -58 -45 -125q-27 -42 -131 -200h176v-109h-369z" />
<glyph unicode="&#xb3;" horiz-adv-x="546" d="M90 985v111h234v186h-187v109h187v108h-234v109h342v-623h-342z" />
<glyph unicode="&#xb4;" horiz-adv-x="614" d="M27 1239l530 209l37 -86l-531 -211z" />
<glyph unicode="&#xb5;" horiz-adv-x="993" d="M137 -381v1172h264v-529h265v529h264v-793h-529v-379h-264z" />
<glyph unicode="&#xb7;" horiz-adv-x="548" d="M137 485v267h266v-267h-266z" />
<glyph unicode="&#xb8;" horiz-adv-x="526" d="M27 -209l264 2v232h92v-330h-356v96z" />
<glyph unicode="&#xba;" horiz-adv-x="792" d="M94 1280q0 126 88 214.5t213 88.5q126 0 214.5 -88.5t88.5 -214.5q0 -125 -88.5 -213t-214.5 -88q-125 0 -213 88.5t-88 212.5zM248 1280q0 -62 42 -103.5t103 -41.5q62 0 105 42t43 103t-43 104t-105 43q-61 0 -103 -42.5t-42 -104.5z" />
<glyph unicode="&#xbb;" horiz-adv-x="1507" d="M109 174l372 365l-372 372l188 189l561 -563l-561 -551zM702 174l373 365l-373 372l189 189l561 -563l-561 -551z" />
<glyph unicode="&#xbc;" horiz-adv-x="1732" d="M61 1315l269 268h188v-1079h-188v811l-135 -133zM537 59l688 1440l125 -61l-688 -1438zM991 203l406 878h190v-690h53v-188h-53v-203h-190v203h-406zM1286 391h111v242z" />
<glyph unicode="&#xbd;" horiz-adv-x="1992" d="M72 1315l268 268h188v-1079h-188v811l-135 -133zM547 59l688 1440l125 -61l-688 -1438zM1272 2l397 619q24 40 32.5 55t16.5 37t8 43q0 64 -31 100.5t-75 36.5q-53 0 -95 -38.5t-30 -104.5l-180 -56q-10 29 -11 68t7.5 82.5t32.5 85.5t59 76t91 54.5t126 20.5 q63 0 115 -22t84.5 -56.5t55 -79t31.5 -86.5t9 -81q0 -98 -78 -219q-40 -60 -119 -179t-112 -168h309v-188h-643z" />
<glyph unicode="&#xbe;" horiz-adv-x="1693" d="M70 541v182h395v313h-315v185h315v182h-395v184h577v-1046h-577zM549 59l688 1440l125 -61l-688 -1438zM948 203l406 878h190v-690h53v-188h-53v-203h-190v203h-406zM1243 391h111v242z" />
<glyph unicode="&#xbf;" horiz-adv-x="1191" d="M176 -2v1042h774v-268h-508v-506h648v-268h-914zM682 1268v250h268v-250h-268z" />
<glyph unicode="&#xc0;" d="M137 0v1524h838v-1524h-266v418h-306v-418h-266zM319 1782l43 90l525 -225l-43 -88zM403 686h306v571h-306v-571z" />
<glyph unicode="&#xc1;" d="M137 0v1524h838v-1524h-266v418h-306v-418h-266zM244 1661l530 209l37 -86l-530 -211zM403 686h306v571h-306v-571z" />
<glyph unicode="&#xc2;" d="M137 0v1524h838v-1524h-266v418h-306v-418h-266zM213 1659l346 160l340 -160l-47 -76l-295 135l-297 -135zM403 686h306v571h-306v-571z" />
<glyph unicode="&#xc3;" d="M137 0v1524h838v-1524h-266v418h-306v-418h-266zM197 1733l10 7q10 8 28 18.5t42 21.5t55.5 17.5t65 6.5t73.5 -12.5t78 -38.5q53 -36 106 -49.5t91 -8t69 16t47 22.5l15 11l57 -74q-7 -6 -20.5 -16t-56 -29.5t-85.5 -27.5t-104.5 3.5t-118.5 49.5q-52 35 -101 48 t-82.5 7t-60 -17.5t-39.5 -23.5l-12 -12q-1 1 -2.5 3.5t-6.5 9t-9.5 13t-10.5 15t-11 15t-9 12.5l-6 9zM403 686h306v571h-306v-571z" />
<glyph unicode="&#xc4;" d="M137 0v1524h838v-1524h-266v418h-306v-418h-266zM233 1602v94l170 -2v-92h-170zM403 686h306v571h-306v-571zM711 1602v94l170 -2v-92h-170z" />
<glyph unicode="&#xc5;" d="M137 0v1524h156q-37 64 -37 145q0 126 88 214.5t213 88.5q126 0 214.5 -88.5t88.5 -214.5q0 -78 -39 -145h154v-1524h-266v418h-306v-418h-266zM403 686h306v571h-306v-571zM410 1669q0 -61 42 -103t103 -42q62 0 104.5 42t42.5 103q0 62 -43 105t-104 43t-103 -43 t-42 -105z" />
<glyph unicode="&#xc6;" horiz-adv-x="1976" d="M137 0v1524h1409v-267h-571v-305h569v-266h-569v-418h571v-268h-837v418h-306v-418h-266zM403 686h306v571h-306v-571z" />
<glyph unicode="&#xc7;" horiz-adv-x="1024" d="M137 0v1524h838v-267h-572v-991h572v-266h-213v-305h-356v96l264 2v207h-533z" />
<glyph unicode="&#xc8;" horiz-adv-x="1030" d="M135 0v1524h838v-267h-572v-305h570v-266h-570v-418h572v-268h-838zM266 1782l43 90l525 -225l-43 -88z" />
<glyph unicode="&#xc9;" horiz-adv-x="1030" d="M135 0v1524h838v-267h-572v-305h570v-266h-570v-418h572v-268h-838zM244 1661l530 209l37 -86l-530 -211z" />
<glyph unicode="&#xca;" horiz-adv-x="1030" d="M135 0v1524h838v-267h-572v-305h570v-266h-570v-418h572v-268h-838zM211 1659l346 160l340 -160l-47 -76l-295 135l-297 -135z" />
<glyph unicode="&#xcb;" horiz-adv-x="1030" d="M135 0v1524h838v-267h-572v-305h570v-266h-570v-418h572v-268h-838zM217 1602v94l170 -2v-92h-170zM694 1602v94l170 -2v-92h-170z" />
<glyph unicode="&#xcc;" horiz-adv-x="544" d="M-12 1782l43 90l524 -225l-43 -88zM133 0v1526h266v-1526h-266z" />
<glyph unicode="&#xcd;" horiz-adv-x="544" d="M-43 1657l530 209l37 -86l-530 -211zM133 0v1526h266v-1526h-266z" />
<glyph unicode="&#xce;" horiz-adv-x="544" d="M-74 1659l346 160l340 -160l-47 -76l-295 135l-297 -135zM133 0v1526h266v-1526h-266z" />
<glyph unicode="&#xcf;" horiz-adv-x="544" d="M-59 1602v94l170 -2v-92h-170zM133 0v1526h266v-1526h-266zM418 1602v94l170 -2v-92h-170z" />
<glyph unicode="&#xd0;" horiz-adv-x="1132" d="M137 0v1524h266q257 -23 424 -176q224 -205 224 -592q0 -374 -217 -576q-171 -157 -431 -180h-266zM403 268q155 21 252 109q131 125 131 379q0 268 -137 393q-91 84 -246 106v-987z" />
<glyph unicode="&#xd1;" horiz-adv-x="1105" d="M131 2v1524h266l305 -815v815h267v-1524h-267l-305 811v-811h-266zM184 1769l10 7q10 8 28 18.5t42.5 22t55.5 18t64.5 6.5t74 -12.5t78.5 -38.5q53 -36 106 -49.5t91 -8t68.5 16t45.5 21.5l16 12l58 -74q-7 -6 -20.5 -16t-56 -29.5t-85.5 -27.5t-104.5 3.5t-118.5 49.5 q-52 35 -101 48t-82.5 6.5t-60 -17.5t-39.5 -23l-12 -12q-1 1 -2.5 3.5t-6.5 9l-10 13t-11 14.5t-10.5 15t-9 12.5t-6.5 8.5z" />
<glyph unicode="&#xd2;" horiz-adv-x="1105" d="M94 764q0 118 14 227.5t47.5 216t83.5 184t129 125.5t177 48q96 0 175 -46t131.5 -122.5t88.5 -180t52 -215t16 -231.5q0 -154 -27 -294t-80.5 -256.5t-144 -185.5t-207.5 -69q-80 0 -148.5 34t-117.5 93t-86 136t-59 168t-33 183t-11 185zM326 1782l43 90l524 -225 l-43 -88zM358 764q0 -90 13.5 -182.5t37.5 -170t61.5 -126.5t80.5 -49q55 0 100 79.5t68.5 200.5t23.5 252q0 129 -22.5 248t-68 199.5t-103.5 80.5q-46 0 -84 -48.5t-60.5 -126.5t-34.5 -170.5t-12 -186.5z" />
<glyph unicode="&#xd3;" horiz-adv-x="1105" d="M94 764q0 118 14 227.5t47.5 216t83.5 184t129 125.5t177 48q96 0 175 -46t131.5 -122.5t88.5 -180t52 -215t16 -231.5q0 -154 -27 -294t-80.5 -256.5t-144 -185.5t-207.5 -69q-80 0 -148.5 34t-117.5 93t-86 136t-59 168t-33 183t-11 185zM182 1661l531 209l37 -86 l-531 -211zM358 764q0 -90 13.5 -182.5t37.5 -170t61.5 -126.5t80.5 -49q55 0 100 79.5t68.5 200.5t23.5 252q0 129 -22.5 248t-68 199.5t-103.5 80.5q-46 0 -84 -48.5t-60.5 -126.5t-34.5 -170.5t-12 -186.5z" />
<glyph unicode="&#xd4;" horiz-adv-x="1105" d="M94 764q0 118 14 227.5t47.5 216t83.5 184t129 125.5t177 48q96 0 175 -46t131.5 -122.5t88.5 -180t52 -215t16 -231.5q0 -154 -27 -294t-80.5 -256.5t-144 -185.5t-207.5 -69q-80 0 -148.5 34t-117.5 93t-86 136t-59 168t-33 183t-11 185zM203 1659l346 160l340 -160 l-47 -76l-295 135l-297 -135zM358 764q0 -90 13.5 -182.5t37.5 -170t61.5 -126.5t80.5 -49q55 0 100 79.5t68.5 200.5t23.5 252q0 129 -22.5 248t-68 199.5t-103.5 80.5q-46 0 -84 -48.5t-60.5 -126.5t-34.5 -170.5t-12 -186.5z" />
<glyph unicode="&#xd5;" horiz-adv-x="1105" d="M94 764q0 118 14 227.5t47.5 216t83.5 184t129 125.5t177 48q96 0 175 -46t131.5 -122.5t88.5 -180t52 -215t16 -231.5q0 -154 -27 -294t-80.5 -256.5t-144 -185.5t-207.5 -69q-80 0 -148.5 34t-117.5 93t-86 136t-59 168t-33 183t-11 185zM201 1794l10 8q10 7 28 17.5 t42 22t55.5 18t65 6.5t73.5 -12.5t78 -38.5q53 -36 106 -50t91 -8.5t69 16t47 21.5l15 12l57 -73q-7 -6 -20.5 -16t-56 -30t-85.5 -28t-104.5 3.5t-118.5 49.5q-52 35 -101 48t-82.5 7t-60 -17.5t-39.5 -23.5l-12 -12q-1 1 -2.5 3.5t-6.5 9t-9.5 13t-10.5 15t-11 15t-9 12.5 l-6 9zM358 764q0 -90 13.5 -182.5t37.5 -170t61.5 -126.5t80.5 -49q55 0 100 79.5t68.5 200.5t23.5 252q0 129 -22.5 248t-68 199.5t-103.5 80.5q-46 0 -84 -48.5t-60.5 -126.5t-34.5 -170.5t-12 -186.5z" />
<glyph unicode="&#xd6;" horiz-adv-x="1105" d="M94 764q0 118 14 227.5t47.5 216t83.5 184t129 125.5t177 48q96 0 175 -46t131.5 -122.5t88.5 -180t52 -215t16 -231.5q0 -154 -27 -294t-80.5 -256.5t-144 -185.5t-207.5 -69q-80 0 -148.5 34t-117.5 93t-86 136t-59 168t-33 183t-11 185zM248 1640v95l170 -2v-93h-170z M358 764q0 -90 13.5 -182.5t37.5 -170t61.5 -126.5t80.5 -49q55 0 100 79.5t68.5 200.5t23.5 252q0 129 -22.5 248t-68 199.5t-103.5 80.5q-46 0 -84 -48.5t-60.5 -126.5t-34.5 -170.5t-12 -186.5zM725 1640v95l170 -2v-93h-170z" />
<glyph unicode="&#xd7;" horiz-adv-x="1173" d="M98 313l299 299l-299 301l189 189l299 -301l301 303l188 -189l-301 -301l301 -301l-188 -188l-301 301l-299 -301z" />
<glyph unicode="&#xd8;" horiz-adv-x="1101" d="M94 764q0 118 14 227.5t47.5 216t83.5 184t129 125.5t177 48q121 0 215 -72l239 -115l-67 -141q76 -204 76 -467q0 -154 -27 -294t-80.5 -256.5t-144 -185.5t-207.5 -69q-109 0 -199 64l-10 -25l-240 115l76 157q-82 211 -82 488zM358 764q0 -65 4 -100l275 575 q-41 57 -88 57q-46 0 -84 -48.5t-60.5 -126.5t-34.5 -170.5t-12 -186.5zM473 281q36 -45 78 -45q55 0 100 79.5t68.5 200.5t23.5 252q0 11 -1 35t-1 37z" />
<glyph unicode="&#xd9;" horiz-adv-x="1179" d="M129 0v1526h266v-1258h381v1258h268v-1526h-915zM309 1806l43 90l525 -225l-43 -88z" />
<glyph unicode="&#xda;" horiz-adv-x="1179" d="M129 0v1526h266v-1258h381v1258h268v-1526h-915zM272 1671l531 209l37 -86l-531 -211z" />
<glyph unicode="&#xdb;" horiz-adv-x="1179" d="M129 0v1526h266v-1258h381v1258h268v-1526h-915zM242 1661l346 160l340 -160l-47 -76l-295 135l-297 -135z" />
<glyph unicode="&#xdc;" horiz-adv-x="1179" d="M129 0v1526h266v-1258h381v1258h268v-1526h-915zM262 1589v94l170 -2v-92h-170zM739 1589v94l170 -2v-92h-170z" />
<glyph unicode="&#xdd;" horiz-adv-x="1124" d="M74 1501h266l262 -489l246 489h264l-371 -770v-731h-282v731zM264 1665l531 209l36 -86l-530 -211z" />
<glyph unicode="&#xe0;" d="M137 0v1524h838v-1524h-266v418h-306v-418h-266zM319 1782l43 90l525 -225l-43 -88zM403 686h306v571h-306v-571z" />
<glyph unicode="&#xe1;" d="M137 0v1524h838v-1524h-266v418h-306v-418h-266zM244 1661l530 209l37 -86l-530 -211zM403 686h306v571h-306v-571z" />
<glyph unicode="&#xe2;" d="M137 0v1524h838v-1524h-266v418h-306v-418h-266zM213 1659l346 160l340 -160l-47 -76l-295 135l-297 -135zM403 686h306v571h-306v-571z" />
<glyph unicode="&#xe3;" d="M137 0v1524h838v-1524h-266v418h-306v-418h-266zM197 1733l10 7q10 8 28 18.5t42 21.5t55.5 17.5t65 6.5t73.5 -12.5t78 -38.5q53 -36 106 -49.5t91 -8t69 16t47 22.5l15 11l57 -74q-7 -6 -20.5 -16t-56 -29.5t-85.5 -27.5t-104.5 3.5t-118.5 49.5q-52 35 -101 48 t-82.5 7t-60 -17.5t-39.5 -23.5l-12 -12q-1 1 -2.5 3.5t-6.5 9t-9.5 13t-10.5 15t-11 15t-9 12.5l-6 9zM403 686h306v571h-306v-571z" />
<glyph unicode="&#xe4;" d="M137 0v1524h838v-1524h-266v418h-306v-418h-266zM233 1602v94l170 -2v-92h-170zM403 686h306v571h-306v-571zM711 1602v94l170 -2v-92h-170z" />
<glyph unicode="&#xe5;" d="M137 0v1524h156q-37 64 -37 145q0 126 88 214.5t213 88.5q126 0 214.5 -88.5t88.5 -214.5q0 -78 -39 -145h154v-1524h-266v418h-306v-418h-266zM403 686h306v571h-306v-571zM410 1669q0 -61 42 -103t103 -42q62 0 104.5 42t42.5 103q0 62 -43 105t-104 43t-103 -43 t-42 -105z" />
<glyph unicode="&#xe6;" horiz-adv-x="1976" d="M137 0v1524h1409v-267h-571v-305h569v-266h-569v-418h571v-268h-837v418h-306v-418h-266zM403 686h306v571h-306v-571z" />
<glyph unicode="&#xe7;" horiz-adv-x="1024" d="M137 0v1524h838v-267h-572v-991h572v-266h-213v-305h-356v96l264 2v207h-533z" />
<glyph unicode="&#xe8;" horiz-adv-x="1030" d="M135 0v1524h838v-267h-572v-305h570v-266h-570v-418h572v-268h-838zM266 1782l43 90l525 -225l-43 -88z" />
<glyph unicode="&#xe9;" horiz-adv-x="1030" d="M135 0v1524h838v-267h-572v-305h570v-266h-570v-418h572v-268h-838zM244 1661l530 209l37 -86l-530 -211z" />
<glyph unicode="&#xea;" horiz-adv-x="1030" d="M135 0v1524h838v-267h-572v-305h570v-266h-570v-418h572v-268h-838zM211 1659l346 160l340 -160l-47 -76l-295 135l-297 -135z" />
<glyph unicode="&#xeb;" horiz-adv-x="1030" d="M135 0v1524h838v-267h-572v-305h570v-266h-570v-418h572v-268h-838zM217 1602v94l170 -2v-92h-170zM694 1602v94l170 -2v-92h-170z" />
<glyph unicode="&#xec;" horiz-adv-x="544" d="M-12 1782l43 90l524 -225l-43 -88zM133 0v1526h266v-1526h-266z" />
<glyph unicode="&#xed;" horiz-adv-x="544" d="M-43 1657l530 209l37 -86l-530 -211zM133 0v1526h266v-1526h-266z" />
<glyph unicode="&#xee;" horiz-adv-x="544" d="M-74 1659l346 160l340 -160l-47 -76l-295 135l-297 -135zM133 0v1526h266v-1526h-266z" />
<glyph unicode="&#xef;" horiz-adv-x="544" d="M-59 1602v94l170 -2v-92h-170zM133 0v1526h266v-1526h-266zM418 1602v94l170 -2v-92h-170z" />
<glyph unicode="&#xf0;" horiz-adv-x="1132" d="M137 0v1524h266q257 -23 424 -176q224 -205 224 -592q0 -374 -217 -576q-171 -157 -431 -180h-266zM403 268q155 21 252 109q131 125 131 379q0 268 -137 393q-91 84 -246 106v-987z" />
<glyph unicode="&#xf1;" horiz-adv-x="1105" d="M131 2v1524h266l305 -815v815h267v-1524h-267l-305 811v-811h-266zM184 1769l10 7q10 8 28 18.5t42.5 22t55.5 18t64.5 6.5t74 -12.5t78.5 -38.5q53 -36 106 -49.5t91 -8t68.5 16t45.5 21.5l16 12l58 -74q-7 -6 -20.5 -16t-56 -29.5t-85.5 -27.5t-104.5 3.5t-118.5 49.5 q-52 35 -101 48t-82.5 6.5t-60 -17.5t-39.5 -23l-12 -12q-1 1 -2.5 3.5t-6.5 9l-10 13t-11 14.5t-10.5 15t-9 12.5t-6.5 8.5z" />
<glyph unicode="&#xf2;" horiz-adv-x="1105" d="M94 764q0 118 14 227.5t47.5 216t83.5 184t129 125.5t177 48q96 0 175 -46t131.5 -122.5t88.5 -180t52 -215t16 -231.5q0 -154 -27 -294t-80.5 -256.5t-144 -185.5t-207.5 -69q-80 0 -148.5 34t-117.5 93t-86 136t-59 168t-33 183t-11 185zM326 1782l43 90l524 -225 l-43 -88zM358 764q0 -90 13.5 -182.5t37.5 -170t61.5 -126.5t80.5 -49q55 0 100 79.5t68.5 200.5t23.5 252q0 129 -22.5 248t-68 199.5t-103.5 80.5q-46 0 -84 -48.5t-60.5 -126.5t-34.5 -170.5t-12 -186.5z" />
<glyph unicode="&#xf3;" horiz-adv-x="1105" d="M94 764q0 118 14 227.5t47.5 216t83.5 184t129 125.5t177 48q96 0 175 -46t131.5 -122.5t88.5 -180t52 -215t16 -231.5q0 -154 -27 -294t-80.5 -256.5t-144 -185.5t-207.5 -69q-80 0 -148.5 34t-117.5 93t-86 136t-59 168t-33 183t-11 185zM182 1661l531 209l37 -86 l-531 -211zM358 764q0 -90 13.5 -182.5t37.5 -170t61.5 -126.5t80.5 -49q55 0 100 79.5t68.5 200.5t23.5 252q0 129 -22.5 248t-68 199.5t-103.5 80.5q-46 0 -84 -48.5t-60.5 -126.5t-34.5 -170.5t-12 -186.5z" />
<glyph unicode="&#xf4;" horiz-adv-x="1105" d="M94 764q0 118 14 227.5t47.5 216t83.5 184t129 125.5t177 48q96 0 175 -46t131.5 -122.5t88.5 -180t52 -215t16 -231.5q0 -154 -27 -294t-80.5 -256.5t-144 -185.5t-207.5 -69q-80 0 -148.5 34t-117.5 93t-86 136t-59 168t-33 183t-11 185zM203 1659l346 160l340 -160 l-47 -76l-295 135l-297 -135zM358 764q0 -90 13.5 -182.5t37.5 -170t61.5 -126.5t80.5 -49q55 0 100 79.5t68.5 200.5t23.5 252q0 129 -22.5 248t-68 199.5t-103.5 80.5q-46 0 -84 -48.5t-60.5 -126.5t-34.5 -170.5t-12 -186.5z" />
<glyph unicode="&#xf5;" horiz-adv-x="1105" d="M94 764q0 118 14 227.5t47.5 216t83.5 184t129 125.5t177 48q96 0 175 -46t131.5 -122.5t88.5 -180t52 -215t16 -231.5q0 -154 -27 -294t-80.5 -256.5t-144 -185.5t-207.5 -69q-80 0 -148.5 34t-117.5 93t-86 136t-59 168t-33 183t-11 185zM201 1794l10 8q10 7 28 17.5 t42 22t55.5 18t65 6.5t73.5 -12.5t78 -38.5q53 -36 106 -50t91 -8.5t69 16t47 21.5l15 12l57 -73q-7 -6 -20.5 -16t-56 -30t-85.5 -28t-104.5 3.5t-118.5 49.5q-52 35 -101 48t-82.5 7t-60 -17.5t-39.5 -23.5l-12 -12q-1 1 -2.5 3.5t-6.5 9t-9.5 13t-10.5 15t-11 15t-9 12.5 l-6 9zM358 764q0 -90 13.5 -182.5t37.5 -170t61.5 -126.5t80.5 -49q55 0 100 79.5t68.5 200.5t23.5 252q0 129 -22.5 248t-68 199.5t-103.5 80.5q-46 0 -84 -48.5t-60.5 -126.5t-34.5 -170.5t-12 -186.5z" />
<glyph unicode="&#xf6;" horiz-adv-x="1105" d="M94 764q0 118 14 227.5t47.5 216t83.5 184t129 125.5t177 48q96 0 175 -46t131.5 -122.5t88.5 -180t52 -215t16 -231.5q0 -154 -27 -294t-80.5 -256.5t-144 -185.5t-207.5 -69q-80 0 -148.5 34t-117.5 93t-86 136t-59 168t-33 183t-11 185zM248 1640v95l170 -2v-93h-170z M358 764q0 -90 13.5 -182.5t37.5 -170t61.5 -126.5t80.5 -49q55 0 100 79.5t68.5 200.5t23.5 252q0 129 -22.5 248t-68 199.5t-103.5 80.5q-46 0 -84 -48.5t-60.5 -126.5t-34.5 -170.5t-12 -186.5zM725 1640v95l170 -2v-93h-170z" />
<glyph unicode="&#xf7;" horiz-adv-x="446" d="M-133 403v267h713v-267h-713zM88 0v266h266v-266h-266zM88 813v266h266v-266h-266z" />
<glyph unicode="&#xf8;" horiz-adv-x="1101" d="M94 764q0 118 14 227.5t47.5 216t83.5 184t129 125.5t177 48q121 0 215 -72l239 -115l-67 -141q76 -204 76 -467q0 -154 -27 -294t-80.5 -256.5t-144 -185.5t-207.5 -69q-109 0 -199 64l-10 -25l-240 115l76 157q-82 211 -82 488zM358 764q0 -65 4 -100l275 575 q-41 57 -88 57q-46 0 -84 -48.5t-60.5 -126.5t-34.5 -170.5t-12 -186.5zM473 281q36 -45 78 -45q55 0 100 79.5t68.5 200.5t23.5 252q0 11 -1 35t-1 37z" />
<glyph unicode="&#xf9;" horiz-adv-x="1179" d="M129 0v1526h266v-1258h381v1258h268v-1526h-915zM309 1806l43 90l525 -225l-43 -88z" />
<glyph unicode="&#xfa;" horiz-adv-x="1179" d="M129 0v1526h266v-1258h381v1258h268v-1526h-915zM272 1671l531 209l37 -86l-531 -211z" />
<glyph unicode="&#xfb;" horiz-adv-x="1179" d="M129 0v1526h266v-1258h381v1258h268v-1526h-915zM242 1661l346 160l340 -160l-47 -76l-295 135l-297 -135z" />
<glyph unicode="&#xfc;" horiz-adv-x="1179" d="M129 0v1526h266v-1258h381v1258h268v-1526h-915zM262 1589v94l170 -2v-92h-170zM739 1589v94l170 -2v-92h-170z" />
<glyph unicode="&#xfd;" horiz-adv-x="1124" d="M74 1501h266l262 -489l246 489h264l-371 -770v-731h-282v731zM264 1665l531 209l36 -86l-530 -211z" />
<glyph unicode="&#x152;" horiz-adv-x="1761" d="M94 764q0 118 14 227.5t47.5 216t83.5 184t129 125.5t177 48q158 0 270 -125v84h838v-267h-572v-305h570v-266h-570v-418h572v-268h-838v88q-113 -123 -266 -123q-80 0 -148.5 34t-117.5 93t-86 136t-59 168t-33 183t-11 185zM358 764q0 -90 13.5 -182.5t37.5 -170 t61.5 -126.5t80.5 -49q55 0 100 79.5t68.5 200.5t23.5 252q0 129 -22.5 248t-68 199.5t-103.5 80.5q-46 0 -84 -48.5t-60.5 -126.5t-34.5 -170.5t-12 -186.5z" />
<glyph unicode="&#x153;" horiz-adv-x="1761" d="M94 764q0 118 14 227.5t47.5 216t83.5 184t129 125.5t177 48q158 0 270 -125v84h838v-267h-572v-305h570v-266h-570v-418h572v-268h-838v88q-113 -123 -266 -123q-80 0 -148.5 34t-117.5 93t-86 136t-59 168t-33 183t-11 185zM358 764q0 -90 13.5 -182.5t37.5 -170 t61.5 -126.5t80.5 -49q55 0 100 79.5t68.5 200.5t23.5 252q0 129 -22.5 248t-68 199.5t-103.5 80.5q-46 0 -84 -48.5t-60.5 -126.5t-34.5 -170.5t-12 -186.5z" />
<glyph unicode="&#x178;" horiz-adv-x="1122" d="M74 1501h266l262 -489l246 489h264l-371 -770v-731h-282v731zM238 1706v94l170 -2v-92h-170zM715 1706v94l170 -2v-92h-170z" />
<glyph unicode="&#x2c6;" horiz-adv-x="823" d="M68 1237l346 160l340 -160l-47 -76l-295 135l-297 -135z" />
<glyph unicode="&#x2dc;" horiz-adv-x="739" d="M2 1311l10 7q10 8 28 18.5t42 21.5t55.5 17.5t65 6.5t73.5 -12.5t78 -38.5q53 -36 106 -49.5t91 -8t69 16t46 22.5l16 11l57 -74q-7 -6 -20.5 -16t-56 -29.5t-85.5 -27.5t-104.5 3.5t-118.5 49.5q-52 35 -101 48t-82.5 7t-60 -17.5t-38.5 -23.5l-13 -12q-1 1 -2.5 3.5 t-6.5 9t-9.5 13t-10.5 15t-11 15t-9 12.5l-6 9z" />
<glyph unicode="&#x2000;" horiz-adv-x="986" />
<glyph unicode="&#x2001;" horiz-adv-x="1972" />
<glyph unicode="&#x2002;" horiz-adv-x="986" />
<glyph unicode="&#x2003;" horiz-adv-x="1972" />
<glyph unicode="&#x2004;" horiz-adv-x="657" />
<glyph unicode="&#x2005;" horiz-adv-x="493" />
<glyph unicode="&#x2006;" horiz-adv-x="328" />
<glyph unicode="&#x2007;" horiz-adv-x="328" />
<glyph unicode="&#x2008;" horiz-adv-x="246" />
<glyph unicode="&#x2009;" horiz-adv-x="394" />
<glyph unicode="&#x200a;" horiz-adv-x="109" />
<glyph unicode="&#x2010;" horiz-adv-x="1118" d="M137 614v267h842v-267h-842z" />
<glyph unicode="&#x2011;" horiz-adv-x="1118" d="M137 614v267h842v-267h-842z" />
<glyph unicode="&#x2012;" horiz-adv-x="1118" d="M137 614v267h842v-267h-842z" />
<glyph unicode="&#x2013;" horiz-adv-x="989" d="M137 614v267h713v-267h-713z" />
<glyph unicode="&#x2014;" horiz-adv-x="1736" d="M137 614v267h1460v-267h-1460z" />
<glyph unicode="&#x2018;" horiz-adv-x="454" d="M88 1100v266l133 236l82 -48l-92 -188h143v-266h-266z" />
<glyph unicode="&#x2019;" horiz-adv-x="446" d="M90 1223v266h266v-266l-133 -236l-82 47l92 189h-143z" />
<glyph unicode="&#x201a;" horiz-adv-x="446" d="M90 0v266h266v-266l-133 -236l-82 48l92 188h-143z" />
<glyph unicode="&#x201c;" horiz-adv-x="851" d="M78 1686l192 53l174 -545l-190 -51zM408 1718l192 54l174 -545l-190 -51z" />
<glyph unicode="&#x201d;" horiz-adv-x="854" d="M78 1229l176 543l190 -52l-174 -544zM408 1196l176 543l190 -51l-174 -545z" />
<glyph unicode="&#x201e;" horiz-adv-x="856" d="M117 0v266h266v-266l-133 -236l-82 48l92 188h-143zM475 0v266h266v-266l-133 -236l-82 48l92 188h-143z" />
<glyph unicode="&#x2022;" horiz-adv-x="815" d="M94 762q0 129 92.5 221t221.5 92t221 -92t92 -221t-92 -221t-221 -92t-221.5 92t-92.5 221z" />
<glyph unicode="&#x2026;" horiz-adv-x="1310" d="M137 0v266h266v-266h-266zM518 0v266h266v-266h-266zM905 0v266h266v-266h-266z" />
<glyph unicode="&#x202f;" horiz-adv-x="394" />
<glyph unicode="&#x2039;" horiz-adv-x="856" d="M16 537l562 563l188 -189l-373 -372l373 -365l-188 -188z" />
<glyph unicode="&#x203a;" horiz-adv-x="856" d="M90 174l373 365l-373 372l189 189l561 -563l-561 -551z" />
<glyph unicode="&#x205f;" horiz-adv-x="493" />
<glyph unicode="&#x20ac;" horiz-adv-x="1091" d="M-106 547v129h241v223h-241v129h241v496h838v-267h-572v-229h297v-129h-297v-223h297v-129h-297v-279h572v-268h-838v547h-241z" />
<glyph unicode="&#x25fc;" horiz-adv-x="1505" d="M0 0v1505h1505v-1505h-1505z" />
</font>
</defs>
</svg>
