<svg xmlns="http://www.w3.org/2000/svg"><defs><font horiz-adv-x="548"><font-face alphabetic="0" ascent="940" descent="-250" panose-1="0 0 5 0 0 0 0 0 0 0"/><glyph glyph-name="space" horiz-adv-x="244" unicode="&#x20;"/><glyph d="M232 631T151 174H85L103 362Q108 416 117 514T133 686H248Q232 631 151 174ZM160 111 144 0H43L59 111H160Z" glyph-name="exclam" horiz-adv-x="269" unicode="&#x21;"/><glyph d="M180 539Q168 499 158 468 154 455 149 440T139 407H98V539L119 686H201L180 539ZM334 539Q308 460 292 407H252V539L273 686H355L334 539Z" glyph-name="quotedbl" horiz-adv-x="363" unicode="&#x26;&#x71;&#x75;&#x6f;&#x74;&#x3b;"/><glyph d="M612 696 536 486H641L630 410H508L452 255H568L558 179H425L360 0H284L349 179H199L134 0H58L123 179H14L24 255H150L206 410H85L96 486H234L310 696H386L310 486H460L536 696H612ZM432 410H282L226 255H376L432 410Z" glyph-name="numbersign" horiz-adv-x="644" unicode="&#x23;"/><glyph d="M349 671Q430 667 479 631T528 524Q528 506 525 483H430Q430 490 431 496T433 509Q433 546 402 566T317 586Q252 586 211 563T170 494Q170 468 188 451T235 424 311 401Q374 384 412 369T477 323 505 243Q505 126 433 73T256 19V-66H183L206 20Q120 24 69 62T17 177Q17 208 23 227H118Q115 224 114 212T113 192Q113 148 147 127T241 105Q320 105 364 133T408 214Q408 244 389 263T341 292 262 316Q201 332 164 346T100 391 73 471Q73 539 105 584T189 650 298 671V760H373L349 671Z" glyph-name="dollar" horiz-adv-x="546" unicode="&#x24;"/><glyph d="M649 686 136 0H66L581 686H649ZM263 685T291 656 319 582Q319 580 318 563T303 457Q295 403 260 370T165 336H158Q109 336 81 364T52 437Q51 442 55 462 56 471 59 493T69 564Q76 617 111 651T207 685H214Q263 685 291 656ZM174 630T156 614 134 571Q116 451 116 441 116 419 129 405T169 391Q197 391 215 407T238 450Q248 524 252 549T256 580Q256 602 242 616T203 630Q174 630 156 614ZM605 348T633 319 661 245Q661 243 660 226T645 120Q637 66 602 33T507-1H500Q451-1 423 27T394 100Q393 105 397 125 398 134 401 156T411 227Q418 280 453 314T549 348H556Q605 348 633 319ZM516 293T498 277 476 234Q458 114 458 104 458 82 471 68T511 54Q539 54 557 70T580 113Q590 187 594 212T598 243Q598 265 584 279T545 293Q516 293 498 277Z" glyph-name="percent" horiz-adv-x="700" unicode="&#x25;"/><glyph d="M384 696T417 689L405 598Q374 607 350 607 283 607 242 580T200 500Q200 454 233 425T321 395H444L492 538H560L540 395H648L636 306H528L485 0H260Q164 0 104 41T43 163Q43 240 84 287T193 354L197 356Q152 378 128 411T103 494Q103 590 172 643T356 696Q384 696 417 689ZM316 306Q235 306 189 275T142 182Q142 134 181 112T286 89H399L430 306H316Z" glyph-name="ampersand" horiz-adv-x="661" unicode="&#x26;&#x61;&#x6d;&#x70;&#x3b;"/><glyph d="M180 539Q176 525 171 510T160 477Q148 435 138 407H98V539L119 686H201L180 539Z" glyph-name="quotesingle" horiz-adv-x="209" unicode="&#x26;&#x61;&#x70;&#x6f;&#x73;&#x3b;"/><glyph d="M227 571T174 439 121 170Q121 83 141-1T197-157H145Q93-85 66 0T39 178Q39 458 264 686H316Q227 571 174 439Z" glyph-name="parenleft" horiz-adv-x="289" unicode="&#x28;"/><glyph d="M189 615T216 530 243 351Q243 212 184 82T18-157H-33Q54-44 107 88T160 355Q160 442 140 528T86 686H137Q189 615 216 530Z" glyph-name="parenright" horiz-adv-x="289" unicode="&#x29;"/><glyph d="M330 686 291 519 458 584 470 506 299 468 391 343 320 294 252 438 145 296 88 344 217 469 59 509 95 586 241 520 251 686H330Z" glyph-name="asterisk" horiz-adv-x="469" unicode="&#x2a;"/><glyph d="M379 511 349 297H564L553 213H338L308 0H225L255 213H41L52 297H266L296 511H379Z" glyph-name="plus" horiz-adv-x="615" unicode="&#x2b;"/><glyph d="M144 111 132 26 76-124H24L68 0H27L43 111H144Z" glyph-name="comma" horiz-adv-x="237" unicode="&#x2c;"/><glyph d="M324 319 311 221H60L72 319H324Z" glyph-name="hyphen" horiz-adv-x="390" unicode="&#x2d;"/><glyph d="M145 111 130 0H29L44 111H145Z" glyph-name="period" horiz-adv-x="238" unicode="&#x2e;"/><glyph d="M525 686 36-171H-45L445 686H525Z" glyph-name="slash" horiz-adv-x="489" unicode="&#x2f;"/><glyph d="M428 696T473 671 544 601 570 499V484Q570 470 561 413 561 413 533 221 523 153 489 101T398 20 271-10H258Q200-10 155 14T84 83 58 184Q58 209 95 464 105 532 140 584T231 666 357 696H370Q428 696 473 671ZM287 607T246 570 195 472L180 369Q175 330 166 268T157 194Q157 142 189 111T277 79Q343 79 384 116T434 214Q446 298 450 322 456 363 464 422T472 491Q472 542 439 574T352 607Q287 607 246 570Z" glyph-name="zero" horiz-adv-x="615" unicode="&#x30;"/><glyph d="M349 89H529L516 0H58L71 89H251L316 555H134L143 619Q262 631 395 686H433L349 89Z" glyph-name="one" horiz-adv-x="615" unicode="&#x31;"/><glyph d="M433 696T480 670 548 604 570 522Q570 454 536 396T416 279L205 136Q187 124 172 111T156 89H514L502 0H31L34 24Q42 87 78 132T152 201L372 351Q471 419 471 507 471 546 444 576T351 607Q308 607 272 587T215 530 193 449H95Q95 512 128 568T222 660 362 696Q433 696 480 670Z" glyph-name="two" horiz-adv-x="615" unicode="&#x32;"/><glyph d="M453 696T508 653 564 536Q564 469 528 426T431 356L432 353Q480 337 507 303T534 215Q534 150 499 99T402 19 266-10H254Q151-10 97 35T42 160Q42 175 46 202H144Q141 183 141 172 141 126 173 103T268 79Q344 79 390 112T437 212Q437 261 398 282T297 304H222L235 394H312Q374 394 419 427T464 519Q464 564 431 585T344 607Q288 607 248 578T200 492H102Q114 589 184 642T356 696H365Q453 696 508 653Z" glyph-name="three" horiz-adv-x="615" unicode="&#x33;"/><glyph d="M390 611T335 522 226 362 139 258H369L397 457Q423 496 439 526T470 594H514L467 258H554L541 169H454L431 0H333L356 169H33L46 259Q209 464 320 696H425Q390 611 335 522Z" glyph-name="four" horiz-adv-x="615" unicode="&#x34;"/><glyph d="M551 597H247L204 396Q275 447 349 447 443 447 490 396T537 265Q537 184 505 122T412 25 265-10Q201-10 154 15T82 85 57 184Q57 192 59 214H157Q156 211 156 206V198Q156 144 189 112T277 79Q348 79 393 122T438 246Q438 297 407 330T321 363Q279 363 243 345T182 294L96 307 177 686H563L551 597Z" glyph-name="five" horiz-adv-x="615" unicode="&#x35;"/><glyph d="M457 696T512 646 568 510V492Q568 487 566 473H468Q469 477 469 485V496Q469 548 439 577T354 607Q319 607 286 589T230 541 202 474L187 366Q220 397 262 414T351 432Q406 432 449 410T518 347 543 254Q543 173 508 114T412 22 273-10Q213-10 166 13T93 81 66 184V191Q66 211 103 465 112 528 150 581T246 665 366 696Q457 696 512 646ZM282 343T245 324 186 270 163 191Q163 140 197 110T285 79Q357 79 400 121T443 232Q443 283 411 313T324 343Q282 343 245 324Z" glyph-name="six" horiz-adv-x="615" unicode="&#x36;"/><glyph d="M602 633Q474 502 377 352T258 51Q258 51 255 24L252 0H138Q175 276 472 597H115L128 686H610L602 633Z" glyph-name="seven" horiz-adv-x="615" unicode="&#x37;"/><glyph d="M452 696T504 654 556 536Q556 465 526 425T440 354L439 350Q485 327 509 296T534 216Q534 147 501 96T407 18 265-10Q166-10 108 32T50 153Q50 293 191 350L192 354Q155 377 137 404T118 475Q118 543 151 593T240 669 364 696Q452 696 504 654ZM318 607T287 593 237 552 217 485Q217 445 245 420T322 395Q380 395 418 430T457 516Q457 556 430 581T352 607Q318 607 287 593ZM270 306T234 292 174 248 150 175Q150 129 185 104T277 79Q344 79 390 113T436 210Q436 256 401 281T309 306Q270 306 234 292Z" glyph-name="eight" horiz-adv-x="615" unicode="&#x38;"/><glyph d="M415 696T462 673 535 605 562 502Q562 488 540 328 536 302 533 275T525 221Q515 155 480 103T389 20 262-10Q170-10 115 39T59 176Q59 194 62 213H160Q158 197 158 189 158 137 189 108T274 79Q335 79 376 117T426 212L441 320Q408 289 366 272T277 254Q222 254 179 277T110 341 85 436Q85 516 121 574T219 664 355 696Q415 696 462 673ZM301 607T265 589 206 535 184 455Q184 404 218 374T307 343Q348 343 384 362T442 416 464 495Q464 546 431 576T343 607Q301 607 265 589Z" glyph-name="nine" horiz-adv-x="615" unicode="&#x39;"/><glyph d="M200 511 185 399H84L99 511H200ZM144 111 129 0H28L43 111H144Z" glyph-name="colon" horiz-adv-x="238" unicode="&#x3a;"/><glyph d="M200 511 184 399H83L99 511H200ZM144 111 132 26 76-124H24L68 0H27L43 111H144Z" glyph-name="semicolon" horiz-adv-x="238" unicode="&#x3b;"/><glyph d="M583 504 570 414 120 254 525 94 512 4 31 200 46 307 583 504Z" glyph-name="less" horiz-adv-x="615" unicode="&#x26;&#x6c;&#x74;&#x3b;"/><glyph d="M575 402 563 318H59L71 402H575ZM545 189 534 106H30L41 189H545Z" glyph-name="equal" horiz-adv-x="615" unicode="&#x3d;"/><glyph d="M573 307 558 200 21 4 34 94 486 254 457 265Q246 347 79 414L92 504 573 307Z" glyph-name="greater" horiz-adv-x="615" unicode="&#x26;&#x67;&#x74;&#x3b;"/><glyph d="M379 696T420 669 477 602 493 524Q493 475 476 439T435 379 374 327Q337 298 320 279T299 234L293 185H193L202 249Q207 286 230 312T297 370Q345 406 369 435T394 510Q394 548 369 577T290 607Q218 607 185 565T151 458H53Q53 529 83 583T170 666 303 696H309Q379 696 420 669ZM284 111 269 0H165L180 111H284Z" glyph-name="question" horiz-adv-x="502" unicode="&#x3f;"/><glyph d="M678 697T772 624 866 397Q866 313 843 227T767 82 631 22Q591 22 567 41T543 109L537 106Q471 22 361 22 296 22 259 48T221 146Q221 219 265 257T383 307 567 320Q575 376 575 384 575 413 554 432T476 451Q411 451 388 426T358 375L356 364H270Q270 410 298 445T375 501 487 521H496Q582 521 624 490T666 400Q666 386 658 330T647 255L638 197 631 148 628 121Q628 91 661 91 713 91 745 143T792 264 806 388Q806 517 728 579T509 642Q387 642 292 587T142 425 87 168Q87 33 156-32T370-98Q407-98 460-89T540-66L532-126Q500-137 449-145T363-153Q202-153 115-75T27 163Q27 311 80 432T244 625 517 697Q678 697 772 624ZM437 251T374 232 310 161Q310 123 331 108T401 92Q456 92 500 130T555 233L558 251Q437 251 374 232Z" glyph-name="at" horiz-adv-x="887" unicode="&#x40;"/><glyph d="M436 686 607 0H501L464 149H136L58 0H-36L328 686H436ZM363 568H357L184 238H443L363 568Z" glyph-name="A" horiz-adv-x="650" unicode="&#x41;"/><glyph d="M514 686T561 647 609 540Q609 461 566 417T466 358L465 353Q509 345 544 313T579 214Q579 150 550 101T470 26 361 0H51L148 686H440Q514 686 561 647ZM233 597 205 394H391Q421 394 448 410T491 452 508 509Q508 555 484 576T419 597H233ZM192 305 162 89H358Q410 89 446 121T482 212Q482 252 456 278T388 305H192Z" glyph-name="B" horiz-adv-x="652" unicode="&#x42;"/><glyph d="M504 696T567 640 631 477Q631 448 627 423H529Q532 446 532 466 532 537 494 572T388 607Q302 607 246 554T173 388Q156 272 156 241 156 158 197 119T313 79Q391 79 444 124T510 261H604Q584 125 504 58T301-10Q189-10 123 51T57 232Q57 268 75 388 97 542 181 619T400 696Q504 696 567 640Z" glyph-name="C" horiz-adv-x="662" unicode="&#x43;"/><glyph d="M496 686T563 624 631 442Q631 419 618 308 600 155 514 78T289 0H51L148 686H386Q496 686 563 624ZM233 597 162 89H302Q387 89 445 143T519 308Q532 413 532 432 532 516 490 556T373 597H233Z" glyph-name="D" horiz-adv-x="677" unicode="&#x44;"/><glyph d="M598 686 572 597H233L205 395H512L499 306H192L162 89H507V0H51L148 686H598Z" glyph-name="E" horiz-adv-x="592" unicode="&#x45;"/><glyph d="M580 686 554 597H233L204 388H484L471 299H191L149 0H51L148 686H580Z" glyph-name="F" horiz-adv-x="552" unicode="&#x46;"/><glyph d="M502 696T566 643 631 489Q631 468 628 445H530Q532 467 532 478 532 543 493 575T388 607Q302 607 246 554T173 388Q156 272 156 241 156 158 197 119T313 79Q400 79 445 122T506 261L508 274H314L326 362H616L583 128Q571 60 571 0H513Q506 18 505 82 466 37 414 14T301-10Q189-10 123 51T57 232Q57 268 75 388 97 542 180 619T400 696Q502 696 566 643Z" glyph-name="G" horiz-adv-x="675" unicode="&#x47;"/><glyph d="M657 686 560 0H462L505 306H192L149 0H51L148 686H246L205 395H518L559 686H657Z" glyph-name="H" horiz-adv-x="693" unicode="&#x48;"/><glyph d="M367 686 354 597H274L203 89H283L270 0H12L25 89H105L176 597H96L109 686H367Z" glyph-name="I" horiz-adv-x="365" unicode="&#x49;"/><glyph d="M422 187Q408 89 349 40T192-10H183Q137-10 98 8T34 62 10 149Q10 151 10 165T16 208H113Q108 185 108 166 108 127 134 103T199 79Q249 79 282 106T323 181L394 686H492L422 187Z" glyph-name="J" horiz-adv-x="525" unicode="&#x4a;"/><glyph d="M657 686 362 383 568 0H454L290 308 178 206 149 0H51L148 686H246L196 329 544 686H657Z" glyph-name="K" horiz-adv-x="621" unicode="&#x4b;"/><glyph d="M246 686 162 89H477V0H51L148 686H246Z" glyph-name="L" horiz-adv-x="532" unicode="&#x4c;"/><glyph d="M902 686 805 0H707L788 571H782L464 0H381L226 571H221L140 0H51L148 686H302L447 146H451L749 686H902Z" glyph-name="M" horiz-adv-x="938" unicode="&#x4d;"/><glyph d="M658 686 561 0H478L214 502 211 501 140 0H51L148 686H234L496 190 499 191 569 686H658Z" glyph-name="N" horiz-adv-x="694" unicode="&#x4e;"/><glyph d="M512 696T579 633 647 450Q647 417 630 298 609 146 522 68T303-10Q193-10 125 53T57 235Q56 249 58 266T64 310L75 388Q95 539 183 617T402 696Q512 696 579 633ZM303 607T246 554 173 388Q156 263 156 244 156 160 198 120T315 79Q400 79 457 132T532 298Q549 413 549 442 549 526 507 566T390 607Q303 607 246 554Z" glyph-name="O" horiz-adv-x="690" unicode="&#x4f;"/><glyph d="M522 686T572 640 623 517Q623 448 594 396T510 315 387 286H189L149 0H51L148 686H444Q522 686 572 640ZM233 597 202 375H391Q425 375 455 392T505 438 524 500Q524 542 496 569T422 597H233Z" glyph-name="P" horiz-adv-x="626" unicode="&#x50;"/><glyph d="M512 696T579 633 647 450Q647 417 630 298 610 163 540 86T360-6Q363-32 385-51T450-70Q486-70 558-46L571-42 561-112Q537-126 502-135T424-145Q356-145 310-110T263-8Q168 2 113 64T57 235Q56 249 58 266T64 310L75 388Q95 539 183 617T402 696Q512 696 579 633ZM303 607T246 554 173 388Q156 263 156 244 156 160 198 120T315 79Q400 79 457 132T532 298Q549 413 549 442 549 526 507 566T390 607Q303 607 246 554Z" glyph-name="Q" horiz-adv-x="690" unicode="&#x51;"/><glyph d="M520 686T572 650 625 543Q625 501 608 461T557 391 477 354V349Q507 336 535 303T563 202Q563 185 559 147 555 115 555 104 555 70 564 54T593 31L589 3Q567-5 536-5 498-5 476 14T454 85Q454 102 458 138 461 161 461 173 461 241 433 271T365 302H191L149 0H51L147 686H439Q520 686 572 650ZM233 597 204 391H399Q429 391 458 407T505 450 523 511Q523 550 498 573T428 597H233Z" glyph-name="R" horiz-adv-x="670" unicode="&#x52;"/><glyph d="M469 696T528 657 588 536Q588 515 584 492H486Q490 512 490 520 490 562 455 584T361 607Q289 607 243 581T197 504Q197 474 217 455T267 424 349 399Q418 381 460 363T533 309 564 211Q564 95 486 43T271-10Q165-10 101 31T36 160Q36 174 38 190T43 215H141Q138 212 137 198T135 175Q135 127 173 103T278 79Q364 79 413 110T463 201Q463 233 443 253T394 284 310 310Q242 328 200 346T127 401 97 499Q97 596 173 646T371 696Q469 696 528 657Z" glyph-name="S" horiz-adv-x="629" unicode="&#x53;"/><glyph d="M607 686 594 597H379L295 0H197L281 597H67L80 686H607Z" glyph-name="T" horiz-adv-x="575" unicode="&#x54;"/><glyph d="M585 219Q570 112 498 51T305-10H292Q190-10 132 41T74 180Q74 191 82 249T94 334L142 686H240L196 372 182 272 176 228Q173 209 173 200 173 146 209 113T311 79Q383 79 430 118T487 221L552 686H650L585 219Z" glyph-name="U" horiz-adv-x="682" unicode="&#x55;"/><glyph d="M651 686 310 0H205L59 686H163L278 133H284L556 686H651Z" glyph-name="V" horiz-adv-x="602" unicode="&#x56;"/><glyph d="M955 686 657 0H557L487 496H480L265 0H165L67 686H171L243 169H249L468 686H563L635 169H641L860 686H955Z" glyph-name="W" horiz-adv-x="914" unicode="&#x57;"/><glyph d="M630 658Q613 639 528 536 500 503 464 459T381 361L579 0H461L310 276Q252 209 172 113 108 37 76 0H-32L267 355 88 685H205L338 440 464 589Q487 617 503 635T528 665L545 685H654L630 658Z" glyph-name="X" horiz-adv-x="628" unicode="&#x58;"/><glyph d="M629 686 329 265 291 0H193L231 265 49 686H160L298 367H302L528 686H629Z" glyph-name="Y" horiz-adv-x="570" unicode="&#x59;"/><glyph d="M603 686 597 648 153 89H527L514 0H-9L-3 38 440 597H99L112 686H603Z" glyph-name="Z" horiz-adv-x="595" unicode="&#x5a;"/><glyph d="M310 686 302 631H214L111-106H199L191-161H22L141 686H310Z" glyph-name="bracketleft" horiz-adv-x="294" unicode="&#x5b;"/><glyph d="M147 686 515-171H434L68 686H147Z" glyph-name="backslash" horiz-adv-x="593" unicode="&#x5c;"/><glyph d="M264 686 145-161H-24L-16-106H72L175 631H87L95 686H264Z" glyph-name="bracketright" horiz-adv-x="294" unicode="&#x5d;"/><glyph d="M509 0H425L346 315Q336 359 320 421 282 351 208 211L96 0H12L280 511H383L509 0Z" glyph-name="asciicircum" horiz-adv-x="596" unicode="&#x5e;"/><glyph d="M542-64 533-124H35L43-64H542Z" glyph-name="underscore" horiz-adv-x="687" unicode="&#x5f;"/><glyph d="M167 720 241 575H171L76 717 78 720H167Z" glyph-name="grave" horiz-adv-x="333" unicode="&#x60;"/><glyph d="M334 521T371 501 427 446H434L465 511H530Q512 397 495 266T472 92Q472 79 479 72T496 65Q507 65 520 69T543 79L534 10Q521 2 501-4T457-10Q381-10 381 65 312-10 216-10 137-10 90 40T42 190Q42 294 74 369T162 482 284 521Q334 521 371 501ZM209 446T172 369 135 193Q135 124 163 95T244 65Q324 65 365 136T406 318Q406 386 378 416T297 446Q209 446 172 369Z" glyph-name="a" horiz-adv-x="607" unicode="&#x61;"/><glyph d="M198 446Q226 479 269 500T363 521Q438 521 484 470T531 325Q531 247 506 170T424 42 281-10Q167-10 122 81L78 0H42L143 720H237L198 446ZM242 446T204 372 165 193Q165 124 193 95T274 65Q350 65 393 130T436 318Q436 386 408 416T327 446Q242 446 204 372Z" glyph-name="b" horiz-adv-x="582" unicode="&#x62;"/><glyph d="M401 521T451 474 502 346Q502 330 499 310H406Q408 328 408 337 408 386 381 416T301 446Q211 446 173 371T135 192Q135 128 165 97T252 65Q313 65 349 101T394 200H484Q470 99 407 45T243-10H235Q147-10 95 43T42 191Q42 282 71 357T160 476 309 521H317Q401 521 451 474Z" glyph-name="c" horiz-adv-x="546" unicode="&#x63;"/><glyph d="M539 576Q531 520 502 316T472 92Q472 79 479 72T496 65Q507 65 520 69T543 79L534 10Q521 2 501-4T457-10Q381-10 381 65 312-10 216-10 137-10 90 40T42 190Q42 294 74 369T162 482 284 521Q334 521 371 501T427 446L466 720H560L539 576ZM209 446T172 369 135 193Q135 124 163 95T244 65Q324 65 365 136T406 318Q406 386 378 416T297 446Q209 446 172 369Z" glyph-name="d" horiz-adv-x="612" unicode="&#x64;"/><glyph d="M406 521T456 474 507 344V333Q507 312 494 234H137Q135 212 135 202 135 139 164 102T256 65Q329 65 360 105T399 190H488Q475 96 412 43T246-10H242Q150-10 96 43T41 193Q41 282 71 357T163 476 314 521H321Q406 521 456 474ZM248 446T208 411 150 307H412Q415 327 415 343 415 393 385 419T306 446Q248 446 208 411Z" glyph-name="e" horiz-adv-x="556" unicode="&#x65;"/><glyph d="M312 728T336 723 374 709L365 640Q354 645 335 649T305 654Q278 654 262 642T239 590L227 511H347L338 436H218L147-58Q138-122 100-153T4-184Q-18-184-42-179T-80-165L-72-96Q-61-101-42-105T-11-110Q14-110 31-98T54-46L125 436H66L76 511H134L147 602Q156 667 193 697T290 728Q312 728 336 723Z" glyph-name="f" horiz-adv-x="340" unicode="&#x66;"/><glyph d="M408 521T451 430L496 511H532L465 34Q452-65 390-125T213-186Q119-186 70-139T21-19H114Q114-61 143-86T223-111Q282-111 321-75T368 15L379 95Q351 61 309 41T215 20Q139 20 92 69T44 208Q44 291 72 362T156 477 292 521Q408 521 451 430ZM231 446T186 393 140 217Q140 95 250 95 305 95 341 129T393 215 409 326Q409 391 381 418T300 446Q231 446 186 393Z" glyph-name="g" horiz-adv-x="583" unicode="&#x67;"/><glyph d="M199 447Q272 521 367 521 439 521 482 486T525 380Q525 359 499 177L474 0H380L404 167Q425 318 428 356 428 402 404 424T335 446Q300 446 266 427T208 376 179 304L136 0H42L143 720H237L199 447Z" glyph-name="h" horiz-adv-x="593" unicode="&#x68;"/><glyph d="M239 720 227 633H129L141 720H239ZM208 511 136 0H42L114 511H208Z" glyph-name="i" horiz-adv-x="260" unicode="&#x69;"/><glyph d="M239 720 227 633H129L141 720H239ZM134-15Q121-106 88-146T-14-186Q-36-186-59-181T-96-167L-87-97Q-75-103-58-107T-29-112Q-5-112 13-98T36-44L114 511H208L134-15Z" glyph-name="j" horiz-adv-x="260" unicode="&#x6a;"/><glyph d="M237 720 168 226 436 511H539L307 263 480 0H366L240 190 151 110 136 0H42L143 720H237Z" glyph-name="k" horiz-adv-x="534" unicode="&#x6b;"/><glyph d="M241 720 140 0H46L147 720H241Z" glyph-name="l" horiz-adv-x="268" unicode="&#x6c;"/><glyph d="M722 521T760 487 799 384Q799 359 773 177L748 0H654L678 170Q678 166 691 267 702 355 702 361 702 409 683 427T625 446Q593 446 563 427T512 376 485 304L442 0H348L372 171Q395 341 397 361 397 446 319 446 287 446 257 427T206 376 179 304L136 0H42L114 511H184V436Q256 521 351 521 458 521 485 436 526 484 568 502T657 521Q722 521 760 487Z" glyph-name="m" horiz-adv-x="867" unicode="&#x6d;"/><glyph d="M439 521T482 486 525 380Q525 358 499 178L474 0H380L404 167 416 256Q428 342 428 356 428 402 404 424T335 446Q300 446 266 427T208 376 179 304L136 0H42L114 511H184V436Q262 521 367 521 439 521 482 486Z" glyph-name="n" horiz-adv-x="593" unicode="&#x6e;"/><glyph d="M411 521T467 471 524 324Q524 234 497 159T408 37 245-10Q154-10 98 40T41 187Q41 276 68 351T157 474 320 521Q411 521 467 471ZM217 446T177 373 136 200Q136 132 169 99T256 65Q317 65 355 101T411 193 428 310Q428 379 396 412T309 446Q217 446 177 373Z" glyph-name="o" horiz-adv-x="576" unicode="&#x6f;"/><glyph d="M435 521T483 471 531 320Q531 243 507 167T428 41 289-10Q237-10 201 10T146 65L111-181H17L114 511H188V441Q255 521 357 521 435 521 483 471ZM259 446T213 387 167 193Q167 124 195 95T276 65Q366 65 402 140T438 317Q438 386 410 416T329 446Q259 446 213 387Z" glyph-name="p" horiz-adv-x="583" unicode="&#x70;"/><glyph d="M404 521T450 430L494 511H530L433-180H339L374 65Q346 32 303 11T209-10Q134-10 87 41T40 185Q40 264 65 341T147 469 291 521Q404 521 450 430ZM224 446T180 382 136 193Q136 124 164 95T245 65Q332 65 369 141T407 317Q407 386 379 416T298 446Q224 446 180 382Z" glyph-name="q" horiz-adv-x="582" unicode="&#x71;"/><glyph d="M409 521T442 485 476 389Q476 374 472 351T465 323H382Q386 350 386 358 386 391 365 418T301 446Q248 446 218 404T179 305L136 0H42L114 511H184V435Q188 445 206 465T260 503 348 521Q409 521 442 485Z" glyph-name="r" horiz-adv-x="489" unicode="&#x72;"/><glyph d="M392 521T439 486 487 398Q487 376 483 364H390Q390 369 391 374T392 383Q392 411 368 428T288 446Q220 446 193 423T166 371Q166 342 195 329T287 303Q345 291 381 279T442 241 468 168Q468 74 402 32T226-10H211Q118-10 71 27T23 121Q23 138 25 148T28 160H121L119 144V137Q119 101 152 83T239 65Q296 65 333 86T371 147Q371 181 340 195T244 223Q187 235 153 246T94 284 69 355Q69 433 130 477T302 521H311Q392 521 439 486Z" glyph-name="s" horiz-adv-x="536" unicode="&#x73;"/><glyph d="M223 511H342L331 436H212Q196 335 189 283L181 225Q167 127 167 112 167 83 181 73T217 63Q228 63 248 68T281 78L271 8Q254 0 230-5T183-10Q126-10 100 14T73 93Q73 118 87 221L95 281Q101 330 118 436H62L73 511H128L150 674H253L223 511Z" glyph-name="t" horiz-adv-x="344" unicode="&#x74;"/><glyph d="M511 304Q481 95 482 92 482 79 489 72T506 65Q517 65 530 69T553 79L544 10Q531 2 511-4T467-10Q391-10 391 64V74Q360 39 314 15T217-10Q144-10 101 25T58 131Q58 170 109 511H203L179 346Q154 180 155 155 155 65 248 65 283 65 316 84T374 135 404 207L447 511H541L511 304Z" glyph-name="u" horiz-adv-x="617" unicode="&#x75;"/><glyph d="M530 511 265 0H165L43 511H142L233 120H237L438 511H530Z" glyph-name="v" horiz-adv-x="512" unicode="&#x76;"/><glyph d="M818 511 580 0H482L414 357H410L244 0H146L50 511H146L213 137H217L390 511H482L549 137H553L726 511H818Z" glyph-name="w" horiz-adv-x="809" unicode="&#x77;"/><glyph d="M521 511 308 265 459 0H347L240 187 79 0H-23L200 259 58 511H169L268 337 418 511H521Z" glyph-name="x" horiz-adv-x="517" unicode="&#x78;"/><glyph d="M269 20Q217-78 167-132T52-186Q11-186-19-172L-9-95Q2-101 18-105T49-109Q75-109 107-85T169 5L42 511H141L235 134H239L437 511H529L269 20Z" glyph-name="y" horiz-adv-x="510" unicode="&#x79;"/><glyph d="M446 511 441 474 135 75H393L383 0H-4L1 38 306 436H72L82 511H446Z" glyph-name="z" horiz-adv-x="463" unicode="&#x7a;"/><glyph d="M323 636Q290 636 265 620T234 565Q225 498 208 414L200 371Q191 320 167 294T96 268L95 259Q135 259 152 240T170 182Q170 148 165 106T159 55L152-5Q151-13 149-28T148-52Q148-83 168-96T218-109L211-159Q145-159 108-137T70-52Q70-15 86 77 99 149 99 175 99 200 79 212T30 224L41 303Q73 303 97 316T126 360L152 546Q164 628 210 657T330 686L323 636Z" glyph-name="braceleft" horiz-adv-x="314" unicode="&#x7b;"/><glyph d="M182 721V-199H102V721H182Z" glyph-name="bar" horiz-adv-x="290" unicode="&#x7c;"/><glyph d="M161 686T198 664 235 579Q235 558 206 352 206 327 226 315T276 303L265 224Q233 224 209 210T180 167L154-19Q142-101 96-130T-23-159L-16-109Q16-109 40-93T72-38Q87 51 106 156 115 207 139 233T210 259L211 268Q170 268 153 287T135 345Q135 376 151 511 158 572 158 579 158 610 138 623T89 636L96 686Q161 686 198 664Z" glyph-name="braceright" horiz-adv-x="314" unicode="&#x7d;"/><glyph d="M630 301Q599 270 553 247T456 223Q427 223 402 231T343 256Q305 273 281 281T227 289Q175 289 131 266T53 211L65 296Q99 328 143 351T239 374Q268 374 293 366T352 341Q390 324 414 316T468 308Q519 308 565 331T642 386L630 301Z" glyph-name="asciitilde" horiz-adv-x="691" unicode="&#x7e;"/><glyph glyph-name="uni00A0" horiz-adv-x="244" unicode="&#xa0;"/><glyph d="M208 510 192 399H91L107 510H208ZM160 264T151 167 136 15L118-176H3L100 335H166Q160 264 151 167Z" glyph-name="exclamdown" horiz-adv-x="254" unicode="&#xa1;"/><glyph d="M350 608Q425 600 467 554T510 434Q510 418 507 398H414Q416 416 416 425 416 474 389 504T309 534Q219 534 181 459T143 280Q143 216 173 185T260 153Q321 153 357 189T402 288H492Q478 192 421 138T272 78V-7H199L218 79Q141 86 96 138T50 279Q50 367 76 439T158 556 296 608V693H371L350 608Z" glyph-name="cent" horiz-adv-x="527" unicode="&#xa2;"/><glyph d="M503 696T550 655 598 536Q598 519 593 490H495Q499 510 499 520 499 559 473 583T408 607Q354 607 323 580T284 505L266 382H453L441 293H254L208 89H511L499 0H26L37 89H127L156 293H30L42 382H168L185 499Q199 597 258 646T415 696H424Q503 696 550 655Z" glyph-name="sterling" horiz-adv-x="597" unicode="&#xa3;"/><glyph d="M600 539 538 485Q569 433 569 369 569 320 550 274T495 187L542 133 487 85 440 139Q364 89 284 89 200 89 142 138L81 85 40 133 100 186Q68 236 68 301 68 361 89 407T142 487L98 539 153 587 196 535Q272 585 353 585 395 585 432 572T497 533L559 587 600 539ZM295 516T247 489 169 414 138 311Q138 269 158 234T213 179 293 158Q346 158 393 186T470 262 500 362Q500 405 480 440T425 495 344 516Q295 516 247 489Z" glyph-name="currency" horiz-adv-x="624" unicode="&#xa4;"/><glyph d="M661 686 485 440H596L587 376H439L388 303H577L568 239H357L323 0H225L259 239H50L59 303H246L214 376H69L78 440H186L81 686H192L330 367H334L560 686H661Z" glyph-name="yen" horiz-adv-x="635" unicode="&#xa5;"/><glyph d="M235 686 197 419H108L146 686H235ZM176 266 138 0H49L87 266H176Z" glyph-name="brokenbar" horiz-adv-x="269" unicode="&#xa6;"/><glyph d="M380 696T420 680 482 635 503 572Q503 551 498 539H405Q408 553 408 558 408 586 384 603T304 621Q232 621 207 596T182 542Q182 516 199 496T242 460 312 423Q364 398 395 379T449 330 472 260Q472 201 438 158T363 98Q420 54 420-12 420-95 363-140T189-186H180Q126-186 86-170T24-125 3-62Q3-41 8-29H101Q98-41 98-48 98-76 122-93T202-111Q274-111 299-87T324-32Q324 6 293 30T196 84Q142 110 110 130T56 180 33 253Q33 297 51 330T94 384 142 412Q114 434 100 459T85 519Q85 609 147 652T317 696H326Q380 696 420 680ZM174 360T153 334 131 274Q131 234 163 209T261 154Q275 148 303 134 334 151 354 176T375 234Q375 262 357 283T314 320 242 356Q209 371 202 375 174 360 153 334Z" glyph-name="section" horiz-adv-x="516" unicode="&#xa7;"/><glyph d="M176 731 163 633H73L86 731H176ZM365 731 352 633H261L274 731H365Z" glyph-name="dieresis" horiz-adv-x="440" unicode="&#xa8;"/><glyph d="M496 696T577 649 706 521 754 344Q754 247 707 166T578 38 400-10Q303-10 222 37T94 166 46 344Q46 440 93 521T222 649 400 696Q496 696 577 649ZM312 655T240 614 127 502 86 344Q86 255 127 183T240 71 400 30Q487 30 558 71T671 183 713 344Q713 431 672 502T559 614 400 655Q312 655 240 614ZM478 556T523 514 568 388H501V401Q501 448 473 473T403 499Q358 499 328 474T298 401V286Q298 237 329 212T406 187Q449 187 476 215T503 296H568Q568 215 523 172T406 129H401Q327 129 279 173T231 300V386Q231 468 279 512T400 556H405Q478 556 523 514Z" glyph-name="copyright" horiz-adv-x="785" unicode="&#xa9;"/><glyph d="M261 696T283 684 317 650H322L341 690H380Q368 604 358 532T345 435Q345 418 359 418 372 418 388 427L383 385Q364 373 336 373 289 373 289 418 268 396 244 385T189 373Q141 373 112 403T83 494Q83 558 103 603T156 672 230 696Q261 696 283 684ZM184 650T162 603 140 496Q140 454 157 436T206 418Q255 418 280 461T305 572Q305 615 288 632T238 650Q184 650 162 603Z" glyph-name="ordfeminine" horiz-adv-x="419" unicode="&#xaa;"/><glyph d="M251 511 134 337 202 163H151L55 337 200 511H251ZM433 511 317 337 384 163H334L237 337 383 511H433Z" glyph-name="guillemotleft" horiz-adv-x="458" unicode="&#xab;"/><glyph d="M576 453 537 174H453L479 360H44L57 453H576Z" glyph-name="logicalnot" horiz-adv-x="615" unicode="&#xac;"/><glyph d="M324 319 311 221H60L72 319H324Z" glyph-name="uni00AD" horiz-adv-x="390" unicode="&#xad;"/><glyph d="M496 696T577 649 706 521 754 344Q754 247 707 166T578 38 400-10Q303-10 222 37T94 166 46 344Q46 440 93 521T222 649 400 696Q496 696 577 649ZM312 656T240 616 127 504 86 344Q86 255 127 183T240 71 400 30Q488 30 559 71T672 183 714 344Q714 432 673 503T559 615 400 656Q312 656 240 616ZM489 547T523 518 557 444Q557 410 538 384T490 347Q514 337 532 308T550 227Q550 195 555 179T581 156V138Q567 132 546 132 519 132 503 149T486 212Q486 267 466 293T419 319H320V135H256V547H443Q489 547 523 518ZM320 492V373H431Q457 373 475 390T494 431V435Q494 459 476 475T431 492H320Z" glyph-name="registered" horiz-adv-x="785" unicode="&#xae;"/><glyph d="M393 736 382 662H64L75 736H393Z" glyph-name="overscore" horiz-adv-x="460" unicode="&#xaf;"/><glyph d="M314 696T352 657 391 557Q391 507 368 471T308 415 227 396Q159 396 121 434T83 535Q83 585 106 621T166 677 245 696Q314 696 352 657ZM202 640T176 613 150 540Q150 500 172 476T234 451Q272 451 298 478T324 552Q324 586 305 613T240 640Q202 640 176 613Z" glyph-name="degree" horiz-adv-x="404" unicode="&#xb0;"/><glyph d="M380 511 360 364H575L563 280H348L327 134H244L265 280H51L63 364H277L297 511H380ZM530 83 519 0H16L27 83H530Z" glyph-name="plusminus" horiz-adv-x="615" unicode="&#xb1;"/><glyph d="M316 800T344 771 372 704Q372 666 354 635T287 571L159 482Q145 472 145 467H341L335 418H76L78 431Q87 490 142 528L263 611Q318 648 318 696 318 717 303 734T252 751Q216 751 191 727T165 664H111Q111 699 129 730T180 780 258 800Q316 800 344 771Z" glyph-name="uni00B2" horiz-adv-x="381" unicode="&#xb2;"/><glyph d="M299 800T329 777 359 712Q359 646 286 614V610Q342 592 342 536 342 481 300 447T195 412H189Q132 412 102 437T72 505Q72 507 74 529H128L126 518V512Q126 461 196 461 238 461 263 480T289 534Q289 561 268 573T212 585H171L178 634H220Q255 634 279 652T304 703Q304 728 286 739T238 751Q207 751 186 735T159 688H105Q111 741 150 770T245 800H250Q299 800 329 777Z" glyph-name="uni00B3" horiz-adv-x="361" unicode="&#xb3;"/><glyph d="M261 720V716L125 575H56L171 720H261Z" glyph-name="acute" horiz-adv-x="333" unicode="&#xb4;"/><glyph d="M515 304Q485 95 486 92 486 79 493 72T510 65Q521 65 534 69T557 79L548 10Q535 2 515-4T471-10Q395-10 395 64V74Q364 39 318 15T221-10Q167-10 130 9V-32L112-161H18L113 511H207L183 346Q158 180 159 155 159 65 252 65 287 65 320 84T378 135 408 207L451 511H545L515 304Z" glyph-name="uni00B5" horiz-adv-x="613" unicode="&#xb5;"/><glyph d="M528 625H462L350-169H287L399 625H327L215-169H152L211 250Q139 258 94 310T48 435Q48 502 81 560T171 652 299 686H537L528 625Z" glyph-name="paragraph" horiz-adv-x="524" unicode="&#xb6;"/><glyph d="M176 344 161 232H60L75 344H176Z" glyph-name="middot" horiz-adv-x="238" unicode="&#xb7;"/><glyph d="M280-17T280-90Q280-147 239-172T151-197Q96-197 59-175L75-126Q111-146 154-146 180-146 198-133T217-95Q217-78 205-69T171-60H150L156-17H180Q280-17 280-90Z" glyph-name="cedilla" horiz-adv-x="350" unicode="&#xb8;"/><glyph d="M228 471H309L302 422H68L75 471H174L210 724H111L116 759Q173 764 253 796H274L228 471Z" glyph-name="uni00B9" horiz-adv-x="332" unicode="&#xb9;"/><glyph d="M308 696T342 666 376 576Q376 490 336 432T206 373Q150 373 116 403T82 493Q82 579 122 637T252 696Q308 696 342 666ZM189 650T166 607 140 501Q140 459 159 439T213 419Q268 419 292 463T317 568Q317 610 298 630T245 650Q189 650 166 607Z" glyph-name="ordmasculine" horiz-adv-x="392" unicode="&#xba;"/><glyph d="M137 511 237 337 88 163H37L157 337 86 511H137ZM319 511 418 337 270 163H220L339 337 269 511H319Z" glyph-name="guillemotright" horiz-adv-x="460" unicode="&#xbb;"/><glyph d="M670 686 156 0H101L618 686H670ZM198 359H279L272 310H38L45 359H144L179 612H80L86 647Q140 651 222 684H243L198 359ZM556 309T508 240 430 140H553L568 245Q591 281 607 319H632L607 140H653L646 91H600L587 0H533L546 91H373L380 141Q471 254 528 374H583Q556 309 508 240Z" glyph-name="onequarter" horiz-adv-x="701" unicode="&#xbc;"/><glyph d="M651 686 137 0H82L599 686H651ZM196 359H277L270 310H36L43 359H142L177 612H78L84 647Q138 651 220 684H241L196 359ZM637 382T665 353 693 286Q693 248 675 217T608 153L480 64Q466 54 466 49H662L656 0H397L399 13Q408 72 463 110L584 193Q639 230 639 278 639 299 624 316T573 333Q537 333 512 309T486 246H432Q432 281 450 312T501 362 579 382Q637 382 665 353Z" glyph-name="onehalf" horiz-adv-x="727" unicode="&#xbd;"/><glyph d="M273 686T303 663 333 598Q333 532 260 500V496Q316 478 316 422 316 367 274 333T169 298H163Q106 298 76 323T46 391Q46 393 48 415H102L100 404V398Q100 347 170 347 212 347 237 366T263 420Q263 447 242 459T186 471H145L152 520H194Q229 520 253 538T278 589Q278 614 260 625T212 637Q181 637 160 621T133 574H79Q85 627 124 656T219 686H224Q273 686 303 663ZM671 686 157 0H102L619 686H671ZM552 309T504 240 426 140H549L564 245Q587 281 603 319H628L603 140H649L642 91H596L583 0H529L542 91H369L376 141Q467 254 524 374H579Q552 309 504 240Z" glyph-name="threequarters" horiz-adv-x="698" unicode="&#xbe;"/><glyph d="M322 511 307 400H203L218 511H322ZM285 262Q280 225 257 199T190 141Q142 105 118 76T93 1Q93-38 117-67T197-96Q265-96 295-60T333 16Q335 28 335 38T336 53H434Q434-12 405-66T319-152 184-185H178Q107-185 66-157T9-90-7-12Q-7 36 10 72T51 133 113 185Q150 214 167 233T188 277L194 326H294L285 262Z" glyph-name="questiondown" horiz-adv-x="494" unicode="&#xbf;"/><glyph d="M347 895 421 750H351L256 892 258 895H347ZM436 686 607 0H501L464 149H136L58 0H-36L328 686H436ZM363 568H357L184 238H443L363 568Z" glyph-name="Agrave" horiz-adv-x="650" unicode="&#xc0;"/><glyph d="M555 895V891L419 750H350L465 895H555ZM436 686 607 0H501L464 149H136L58 0H-36L328 686H436ZM363 568H357L184 238H443L363 568Z" glyph-name="Aacute" horiz-adv-x="650" unicode="&#xc1;"/><glyph d="M438 895 552 750H472L391 839 283 750H203L360 895H438ZM436 686 607 0H501L464 149H136L58 0H-36L328 686H436ZM363 568H357L184 238H443L363 568Z" glyph-name="Acircumflex" horiz-adv-x="650" unicode="&#xc2;"/><glyph d="M579 813T546 782 459 750Q437 750 417 754T370 768Q344 776 328 780T295 784Q250 784 235 750H187Q194 790 227 822T313 854Q335 854 354 850T402 835Q428 827 443 823T476 819Q521 819 536 854H586Q579 813 546 782ZM436 686 607 0H501L464 149H136L58 0H-36L328 686H436ZM363 568H357L184 238H443L363 568Z" glyph-name="Atilde" horiz-adv-x="650" unicode="&#xc3;"/><glyph d="M349 848 336 750H246L259 848H349ZM538 848 525 750H434L447 848H538ZM436 686 607 0H501L464 149H136L58 0H-36L328 686H436ZM363 568H357L184 238H443L363 568Z" glyph-name="Adieresis" horiz-adv-x="650" unicode="&#xc4;"/><glyph d="M442 922T469 896 496 828Q496 799 481 774T440 735 387 720Q345 720 318 746T291 814Q291 860 324 891T400 922Q442 922 469 896ZM372 881T354 863 336 817Q336 793 351 777T390 761Q414 761 432 780T451 825Q451 849 436 865T397 881Q372 881 354 863ZM436 686 607 0H501L464 149H136L58 0H-36L328 686H436ZM363 568H357L184 238H443L363 568Z" glyph-name="Aring" horiz-adv-x="650" unicode="&#xc5;"/><glyph d="M987 686 961 597H543L565 395H901L888 306H574L598 89H896V0H502L486 149H158L59 0H-33L426 686H987ZM444 568H438L219 238H478L444 568Z" glyph-name="AE" horiz-adv-x="981" unicode="&#xc6;"/><glyph d="M504 696T567 640 631 477Q631 448 627 423H529Q532 446 532 466 532 537 494 572T388 607Q302 607 246 554T173 388Q156 272 156 241 156 158 197 119T313 79Q391 79 444 124T510 261H604Q584 125 504 58T301-10Q189-10 123 51T57 232Q57 268 75 388 97 542 181 619T400 696Q504 696 567 640ZM383-17T383-90Q383-147 342-172T254-197Q199-197 162-175L178-126Q214-146 257-146 283-146 301-133T320-95Q320-78 308-69T274-60H253L259-17H283Q383-17 383-90Z" glyph-name="Ccedilla" horiz-adv-x="662" unicode="&#xc7;"/><glyph d="M347 895 421 750H351L256 892 258 895H347ZM598 686 572 597H233L205 395H512L499 306H192L162 89H507V0H51L148 686H598Z" glyph-name="Egrave" horiz-adv-x="592" unicode="&#xc8;"/><glyph d="M538 895V891L402 750H333L448 895H538ZM598 686 572 597H233L205 395H512L499 306H192L162 89H507V0H51L148 686H598Z" glyph-name="Eacute" horiz-adv-x="592" unicode="&#xc9;"/><glyph d="M440 895 554 750H474L393 839 285 750H205L362 895H440ZM598 686 572 597H233L205 395H512L499 306H192L162 89H507V0H51L148 686H598Z" glyph-name="Ecircumflex" horiz-adv-x="592" unicode="&#xca;"/><glyph d="M340 848 327 750H237L250 848H340ZM529 848 516 750H425L438 848H529ZM598 686 572 597H233L205 395H512L499 306H192L162 89H507V0H51L148 686H598Z" glyph-name="Edieresis" horiz-adv-x="592" unicode="&#xcb;"/><glyph d="M199 895 273 750H203L108 892 110 895H199ZM367 686 354 597H274L203 89H283L270 0H12L25 89H105L176 597H96L109 686H367Z" glyph-name="Igrave" horiz-adv-x="365" unicode="&#xcc;"/><glyph d="M407 895V891L271 750H202L317 895H407ZM367 686 354 597H274L203 89H283L270 0H12L25 89H105L176 597H96L109 686H367Z" glyph-name="Iacute" horiz-adv-x="365" unicode="&#xcd;"/><glyph d="M306 895 420 750H340L259 839 151 750H71L228 895H306ZM367 686 354 597H274L203 89H283L270 0H12L25 89H105L176 597H96L109 686H367Z" glyph-name="Icircumflex" horiz-adv-x="365" unicode="&#xce;"/><glyph d="M210 848 197 750H107L120 848H210ZM399 848 386 750H295L308 848H399ZM367 686 354 597H274L203 89H283L270 0H12L25 89H105L176 597H96L109 686H367Z" glyph-name="Idieresis" horiz-adv-x="365" unicode="&#xcf;"/><glyph d="M501 686T568 624 636 442Q636 419 623 308 605 155 519 78T294 0H56L100 310H10L18 375H109L153 686H391Q501 686 568 624ZM238 597 207 375H352L343 310H198L167 89H307Q392 89 450 143T524 308Q537 413 537 432 537 516 495 556T378 597H238Z" glyph-name="Eth" horiz-adv-x="682" unicode="&#xd0;"/><glyph d="M614 813T581 782 494 750Q472 750 452 754T405 768Q379 776 363 780T330 784Q285 784 270 750H222Q229 790 262 822T348 854Q370 854 389 850T437 835Q463 827 478 823T511 819Q556 819 571 854H621Q614 813 581 782ZM658 686 561 0H478L214 502 211 501 140 0H51L148 686H234L496 190 499 191 569 686H658Z" glyph-name="Ntilde" horiz-adv-x="694" unicode="&#xd1;"/><glyph d="M362 895 436 750H366L271 892 273 895H362ZM512 696T579 633 647 450Q647 417 630 298 609 146 522 68T303-10Q193-10 125 53T57 235Q56 249 58 266T64 310L75 388Q95 539 183 617T402 696Q512 696 579 633ZM303 607T246 554 173 388Q156 263 156 244 156 160 198 120T315 79Q400 79 457 132T532 298Q549 413 549 442 549 526 507 566T390 607Q303 607 246 554Z" glyph-name="Ograve" horiz-adv-x="690" unicode="&#xd2;"/><glyph d="M578 895V891L442 750H373L488 895H578ZM512 696T579 633 647 450Q647 417 630 298 609 146 522 68T303-10Q193-10 125 53T57 235Q56 249 58 266T64 310L75 388Q95 539 183 617T402 696Q512 696 579 633ZM303 607T246 554 173 388Q156 263 156 244 156 160 198 120T315 79Q400 79 457 132T532 298Q549 413 549 442 549 526 507 566T390 607Q303 607 246 554Z" glyph-name="Oacute" horiz-adv-x="690" unicode="&#xd3;"/><glyph d="M484 895 598 750H518L437 839 329 750H249L406 895H484ZM512 696T579 633 647 450Q647 417 630 298 609 146 522 68T303-10Q193-10 125 53T57 235Q56 249 58 266T64 310L75 388Q95 539 183 617T402 696Q512 696 579 633ZM303 607T246 554 173 388Q156 263 156 244 156 160 198 120T315 79Q400 79 457 132T532 298Q549 413 549 442 549 526 507 566T390 607Q303 607 246 554Z" glyph-name="Ocircumflex" horiz-adv-x="690" unicode="&#xd4;"/><glyph d="M620 813T587 782 500 750Q478 750 458 754T411 768Q385 776 369 780T336 784Q291 784 276 750H228Q235 790 268 822T354 854Q376 854 395 850T443 835Q469 827 484 823T517 819Q562 819 577 854H627Q620 813 587 782ZM512 696T579 633 647 450Q647 417 630 298 609 146 522 68T303-10Q193-10 125 53T57 235Q56 249 58 266T64 310L75 388Q95 539 183 617T402 696Q512 696 579 633ZM303 607T246 554 173 388Q156 263 156 244 156 160 198 120T315 79Q400 79 457 132T532 298Q549 413 549 442 549 526 507 566T390 607Q303 607 246 554Z" glyph-name="Otilde" horiz-adv-x="690" unicode="&#xd5;"/><glyph d="M378 848 365 750H275L288 848H378ZM567 848 554 750H463L476 848H567ZM512 696T579 633 647 450Q647 417 630 298 609 146 522 68T303-10Q193-10 125 53T57 235Q56 249 58 266T64 310L75 388Q95 539 183 617T402 696Q512 696 579 633ZM303 607T246 554 173 388Q156 263 156 244 156 160 198 120T315 79Q400 79 457 132T532 298Q549 413 549 442 549 526 507 566T390 607Q303 607 246 554Z" glyph-name="Odieresis" horiz-adv-x="690" unicode="&#xd6;"/><glyph d="M500 448Q530 410 532 407L357 255 489 104 441 60 426 45 368 111Q307 180 294 195L119 45Q117 48 87 86L72 104 246 255 115 407 163 451 178 466 311 314 485 466 500 448Z" glyph-name="multiply" horiz-adv-x="615" unicode="&#xd7;"/><glyph d="M590 621Q647 556 647 450 647 417 630 298 609 146 522 68T303-10Q215-10 154 30L84-65H20L115 63Q57 127 57 235 57 253 60 279T65 316L75 388Q95 539 183 617T402 696Q490 696 552 655L625 754H689L590 621ZM303 607T246 554 173 388Q156 263 156 244 156 185 177 147L494 577Q453 607 390 607 303 607 246 554ZM211 107Q251 79 315 79 400 79 457 132T532 298Q549 413 549 442 549 497 528 537L211 107Z" glyph-name="Oslash" horiz-adv-x="690" unicode="&#xd8;"/><glyph d="M368 895 442 750H372L277 892 279 895H368ZM585 219Q570 112 498 51T305-10H292Q190-10 132 41T74 180Q74 191 82 249T94 334L142 686H240L196 372 182 272 176 228Q173 209 173 200 173 146 209 113T311 79Q383 79 430 118T487 221L552 686H650L585 219Z" glyph-name="Ugrave" horiz-adv-x="682" unicode="&#xd9;"/><glyph d="M572 895V891L436 750H367L482 895H572ZM585 219Q570 112 498 51T305-10H292Q190-10 132 41T74 180Q74 191 82 249T94 334L142 686H240L196 372 182 272 176 228Q173 209 173 200 173 146 209 113T311 79Q383 79 430 118T487 221L552 686H650L585 219Z" glyph-name="Uacute" horiz-adv-x="682" unicode="&#xda;"/><glyph d="M458 895 572 750H492L411 839 303 750H223L380 895H458ZM585 219Q570 112 498 51T305-10H292Q190-10 132 41T74 180Q74 191 82 249T94 334L142 686H240L196 372 182 272 176 228Q173 209 173 200 173 146 209 113T311 79Q383 79 430 118T487 221L552 686H650L585 219Z" glyph-name="Ucircumflex" horiz-adv-x="682" unicode="&#xdb;"/><glyph d="M368 847 355 749H265L278 847H368ZM557 847 544 749H453L466 847H557ZM585 219Q570 112 498 51T305-10H292Q190-10 132 41T74 180Q74 191 82 249T94 334L142 686H240L196 372 182 272 176 228Q173 209 173 200 173 146 209 113T311 79Q383 79 430 118T487 221L552 686H650L585 219Z" glyph-name="Udieresis" horiz-adv-x="682" unicode="&#xdc;"/><glyph d="M510 895V891L374 750H305L420 895H510ZM629 686 329 265 291 0H193L231 265 49 686H160L298 367H302L528 686H629Z" glyph-name="Yacute" horiz-adv-x="570" unicode="&#xdd;"/><glyph d="M228 562H426Q504 562 554 516T605 393Q605 322 572 270T486 190 370 162H172L149 0H51L148 686H246L228 562ZM216 473 185 251H374Q408 251 438 268T487 315 506 378Q506 418 478 445T405 473H216Z" glyph-name="Thorn" horiz-adv-x="633" unicode="&#xde;"/><glyph d="M473 728T526 686 579 571Q579 506 546 459T456 391L457 387Q502 370 528 328T555 235Q555 165 521 112T428 29 301 0H218L229 75H302Q343 75 379 96T438 153 461 232Q461 281 427 313T340 346H267L277 420H342Q380 420 412 439T464 489 483 557Q483 602 457 627T382 653Q321 653 280 615T229 513L148-66H54L124 436H66L77 511H135Q151 613 218 670T392 728Q473 728 526 686Z" glyph-name="germandbls" horiz-adv-x="614" unicode="&#xdf;"/><glyph d="M270 720 344 575H274L179 717 181 720H270ZM334 521T371 501 427 446H434L465 511H530Q512 397 495 266T472 92Q472 79 479 72T496 65Q507 65 520 69T543 79L534 10Q521 2 501-4T457-10Q381-10 381 65 312-10 216-10 137-10 90 40T42 190Q42 294 74 369T162 482 284 521Q334 521 371 501ZM209 446T172 369 135 193Q135 124 163 95T244 65Q324 65 365 136T406 318Q406 386 378 416T297 446Q209 446 172 369Z" glyph-name="agrave" horiz-adv-x="607" unicode="&#xe0;"/><glyph d="M467 720V716L331 575H262L377 720H467ZM334 521T371 501 427 446H434L465 511H530Q512 397 495 266T472 92Q472 79 479 72T496 65Q507 65 520 69T543 79L534 10Q521 2 501-4T457-10Q381-10 381 65 312-10 216-10 137-10 90 40T42 190Q42 294 74 369T162 482 284 521Q334 521 371 501ZM209 446T172 369 135 193Q135 124 163 95T244 65Q324 65 365 136T406 318Q406 386 378 416T297 446Q209 446 172 369Z" glyph-name="aacute" horiz-adv-x="607" unicode="&#xe1;"/><glyph d="M380 720 494 575H414L333 664 225 575H145L302 720H380ZM334 521T371 501 427 446H434L465 511H530Q512 397 495 266T472 92Q472 79 479 72T496 65Q507 65 520 69T543 79L534 10Q521 2 501-4T457-10Q381-10 381 65 312-10 216-10 137-10 90 40T42 190Q42 294 74 369T162 482 284 521Q334 521 371 501ZM209 446T172 369 135 193Q135 124 163 95T244 65Q324 65 365 136T406 318Q406 386 378 416T297 446Q209 446 172 369Z" glyph-name="acircumflex" horiz-adv-x="607" unicode="&#xe2;"/><glyph d="M521 679T488 648 401 616Q379 616 359 620T312 634Q286 642 270 646T237 650Q192 650 177 616H129Q136 656 169 688T255 720Q277 720 296 716T344 701Q370 693 385 689T418 685Q463 685 478 720H528Q521 679 488 648ZM334 521T371 501 427 446H434L465 511H530Q512 397 495 266T472 92Q472 79 479 72T496 65Q507 65 520 69T543 79L534 10Q521 2 501-4T457-10Q381-10 381 65 312-10 216-10 137-10 90 40T42 190Q42 294 74 369T162 482 284 521Q334 521 371 501ZM209 446T172 369 135 193Q135 124 163 95T244 65Q324 65 365 136T406 318Q406 386 378 416T297 446Q209 446 172 369Z" glyph-name="atilde" horiz-adv-x="607" unicode="&#xe3;"/><glyph d="M283 720 270 622H180L193 720H283ZM472 720 459 622H368L381 720H472ZM334 521T371 501 427 446H434L465 511H530Q512 397 495 266T472 92Q472 79 479 72T496 65Q507 65 520 69T543 79L534 10Q521 2 501-4T457-10Q381-10 381 65 312-10 216-10 137-10 90 40T42 190Q42 294 74 369T162 482 284 521Q334 521 371 501ZM209 446T172 369 135 193Q135 124 163 95T244 65Q324 65 365 136T406 318Q406 386 378 416T297 446Q209 446 172 369Z" glyph-name="adieresis" horiz-adv-x="607" unicode="&#xe4;"/><glyph d="M376 750T403 724 430 656Q430 627 415 602T374 563 321 548Q279 548 252 574T225 642Q225 688 258 719T334 750Q376 750 403 724ZM306 709T288 691 270 645Q270 621 285 605T324 589Q348 589 366 608T385 653Q385 677 370 693T331 709Q306 709 288 691ZM334 521T371 501 427 446H434L465 511H530Q512 397 495 266T472 92Q472 79 479 72T496 65Q507 65 520 69T543 79L534 10Q521 2 501-4T457-10Q381-10 381 65 312-10 216-10 137-10 90 40T42 190Q42 294 74 369T162 482 284 521Q334 521 371 501ZM209 446T172 369 135 193Q135 124 163 95T244 65Q324 65 365 136T406 318Q406 386 378 416T297 446Q209 446 172 369Z" glyph-name="aring" horiz-adv-x="607" unicode="&#xe5;"/><glyph d="M745 521T795 474 846 344Q846 302 833 234H476Q474 212 474 202 474 139 503 102T595 65Q668 65 699 105T738 190H827Q819 130 785 85T699 15 585-10H581Q514-10 467 18T397 101Q353 45 301 18T173-10Q107-10 66 20T25 117Q25 197 71 238T196 293 393 307Q400 353 400 368V374Q400 406 378 426T295 446Q187 446 170 366L168 354H76Q76 403 106 441T189 500 308 521H317Q442 521 481 457 551 521 653 521H660Q745 521 795 474ZM587 446T547 411 489 307H751Q754 327 754 343 754 393 724 419T645 446Q587 446 547 411ZM251 234T186 214 120 135Q120 94 142 80T216 65Q252 65 287 83T348 135 380 214L382 234Q251 234 186 214Z" glyph-name="ae" horiz-adv-x="895" unicode="&#xe6;"/><glyph d="M401 521T451 474 502 346Q502 330 499 310H406Q408 328 408 337 408 386 381 416T301 446Q211 446 173 371T135 192Q135 128 165 97T252 65Q313 65 349 101T394 200H484Q470 99 407 45T243-10H235Q147-10 95 43T42 191Q42 282 71 357T160 476 309 521H317Q401 521 451 474ZM328-17T328-90Q328-147 287-172T199-197Q144-197 107-175L123-126Q159-146 202-146 228-146 246-133T265-95Q265-78 253-69T219-60H198L204-17H228Q328-17 328-90Z" glyph-name="ccedilla" horiz-adv-x="546" unicode="&#xe7;"/><glyph d="M282 720 356 575H286L191 717 193 720H282ZM406 521T456 474 507 344V333Q507 312 494 234H137Q135 212 135 202 135 139 164 102T256 65Q329 65 360 105T399 190H488Q475 96 412 43T246-10H242Q150-10 96 43T41 193Q41 282 71 357T163 476 314 521H321Q406 521 456 474ZM248 446T208 411 150 307H412Q415 327 415 343 415 393 385 419T306 446Q248 446 208 411Z" glyph-name="egrave" horiz-adv-x="556" unicode="&#xe8;"/><glyph d="M480 720V716L344 575H275L390 720H480ZM406 521T456 474 507 344V333Q507 312 494 234H137Q135 212 135 202 135 139 164 102T256 65Q329 65 360 105T399 190H488Q475 96 412 43T246-10H242Q150-10 96 43T41 193Q41 282 71 357T163 476 314 521H321Q406 521 456 474ZM248 446T208 411 150 307H412Q415 327 415 343 415 393 385 419T306 446Q248 446 208 411Z" glyph-name="eacute" horiz-adv-x="556" unicode="&#xe9;"/><glyph d="M377 720 491 575H411L330 664 222 575H142L299 720H377ZM406 521T456 474 507 344V333Q507 312 494 234H137Q135 212 135 202 135 139 164 102T256 65Q329 65 360 105T399 190H488Q475 96 412 43T246-10H242Q150-10 96 43T41 193Q41 282 71 357T163 476 314 521H321Q406 521 456 474ZM248 446T208 411 150 307H412Q415 327 415 343 415 393 385 419T306 446Q248 446 208 411Z" glyph-name="ecircumflex" horiz-adv-x="556" unicode="&#xea;"/><glyph d="M286 720 273 622H183L196 720H286ZM475 720 462 622H371L384 720H475ZM406 521T456 474 507 344V333Q507 312 494 234H137Q135 212 135 202 135 139 164 102T256 65Q329 65 360 105T399 190H488Q475 96 412 43T246-10H242Q150-10 96 43T41 193Q41 282 71 357T163 476 314 521H321Q406 521 456 474ZM248 446T208 411 150 307H412Q415 327 415 343 415 393 385 419T306 446Q248 446 208 411Z" glyph-name="edieresis" horiz-adv-x="556" unicode="&#xeb;"/><glyph d="M126 720 200 575H130L35 717 37 720H126ZM208 511 137 0H43L114 511H208Z" glyph-name="igrave" horiz-adv-x="261" unicode="&#xec;"/><glyph d="M322 720V716L186 575H117L232 720H322ZM208 511 137 0H43L114 511H208Z" glyph-name="iacute" horiz-adv-x="261" unicode="&#xed;"/><glyph d="M225 720 339 575H259L178 664 70 575H-10L147 720H225ZM208 511 137 0H43L114 511H208Z" glyph-name="icircumflex" horiz-adv-x="261" unicode="&#xee;"/><glyph d="M136 719 123 621H33L46 719H136ZM325 719 312 621H221L234 719H325ZM208 511 137 0H43L114 511H208Z" glyph-name="idieresis" horiz-adv-x="261" unicode="&#xef;"/><glyph d="M283 701T322 673L422 717Q428 710 436 700T449 683L356 643Q430 576 476 495T522 322Q522 171 453 81T245-10Q153-10 97 40T40 188Q40 275 70 350T163 473 319 521Q335 521 351 518 319 565 280 605L232 584Q204 572 183 562L152 595 252 639Q236 654 195 683 177 695 171 700L198 712Q222 722 234 729 283 701 322 673ZM249 446T210 409 154 316 136 198Q136 130 168 98T255 65Q314 65 352 101T409 193 427 311Q427 380 395 413T309 446Q249 446 210 409Z" glyph-name="eth" horiz-adv-x="576" unicode="&#xf0;"/><glyph d="M546 679T513 648 426 616Q404 616 384 620T337 634Q311 642 295 646T262 650Q217 650 202 616H154Q161 656 194 688T280 720Q302 720 321 716T369 701Q395 693 410 689T443 685Q488 685 503 720H553Q546 679 513 648ZM439 521T482 486 525 380Q525 358 499 178L474 0H380L404 167 416 256Q428 342 428 356 428 402 404 424T335 446Q300 446 266 427T208 376 179 304L136 0H42L114 511H184V436Q262 521 367 521 439 521 482 486Z" glyph-name="ntilde" horiz-adv-x="593" unicode="&#xf1;"/><glyph d="M292 720 366 575H296L201 717 203 720H292ZM411 521T467 471 524 324Q524 234 497 159T408 37 245-10Q154-10 98 40T41 187Q41 276 68 351T157 474 320 521Q411 521 467 471ZM217 446T177 373 136 200Q136 132 169 99T256 65Q317 65 355 101T411 193 428 310Q428 379 396 412T309 446Q217 446 177 373Z" glyph-name="ograve" horiz-adv-x="576" unicode="&#xf2;"/><glyph d="M499 720V716L363 575H294L409 720H499ZM411 521T467 471 524 324Q524 234 497 159T408 37 245-10Q154-10 98 40T41 187Q41 276 68 351T157 474 320 521Q411 521 467 471ZM217 446T177 373 136 200Q136 132 169 99T256 65Q317 65 355 101T411 193 428 310Q428 379 396 412T309 446Q217 446 177 373Z" glyph-name="oacute" horiz-adv-x="576" unicode="&#xf3;"/><glyph d="M396 720 510 575H430L349 664 241 575H161L318 720H396ZM411 521T467 471 524 324Q524 234 497 159T408 37 245-10Q154-10 98 40T41 187Q41 276 68 351T157 474 320 521Q411 521 467 471ZM217 446T177 373 136 200Q136 132 169 99T256 65Q317 65 355 101T411 193 428 310Q428 379 396 412T309 446Q217 446 177 373Z" glyph-name="ocircumflex" horiz-adv-x="576" unicode="&#xf4;"/><glyph d="M525 678T492 647 405 615Q383 615 363 619T316 633Q290 641 274 645T241 649Q196 649 181 615H133Q140 655 173 687T259 719Q281 719 300 715T348 700Q374 692 389 688T422 684Q467 684 482 719H532Q525 678 492 647ZM411 521T467 471 524 324Q524 234 497 159T408 37 245-10Q154-10 98 40T41 187Q41 276 68 351T157 474 320 521Q411 521 467 471ZM217 446T177 373 136 200Q136 132 169 99T256 65Q317 65 355 101T411 193 428 310Q428 379 396 412T309 446Q217 446 177 373Z" glyph-name="otilde" horiz-adv-x="576" unicode="&#xf5;"/><glyph d="M295 719 282 621H192L205 719H295ZM484 719 471 621H380L393 719H484ZM411 521T467 471 524 324Q524 234 497 159T408 37 245-10Q154-10 98 40T41 187Q41 276 68 351T157 474 320 521Q411 521 467 471ZM217 446T177 373 136 200Q136 132 169 99T256 65Q317 65 355 101T411 193 428 310Q428 379 396 412T309 446Q217 446 177 373Z" glyph-name="odieresis" horiz-adv-x="576" unicode="&#xf6;"/><glyph d="M373 460 360 369H277L290 460H373ZM564 297 553 213H41L52 297H564ZM328 141 316 51H233L245 141H328Z" glyph-name="divide" horiz-adv-x="615" unicode="&#xf7;"/><glyph d="M472 466Q524 412 524 324 524 234 497 159T408 37 245-10Q177-10 129 17L74-55H15L92 45Q41 98 41 187 41 276 68 351T157 474 320 521Q386 521 434 494L491 568H550L472 466ZM217 446T181 376 136 200Q136 153 151 123L381 425Q351 446 309 446 217 446 181 376ZM182 86Q211 65 256 65 317 65 355 101T411 193 428 310Q428 357 412 388L182 86Z" glyph-name="oslash" horiz-adv-x="576" unicode="&#xf8;"/><glyph d="M294 720 368 575H298L203 717 205 720H294ZM511 304Q481 95 482 92 482 79 489 72T506 65Q517 65 530 69T553 79L544 10Q531 2 511-4T467-10Q391-10 391 64V74Q360 39 314 15T217-10Q144-10 101 25T58 131Q58 170 109 511H203L179 346Q154 180 155 155 155 65 248 65 283 65 316 84T374 135 404 207L447 511H541L511 304Z" glyph-name="ugrave" horiz-adv-x="617" unicode="&#xf9;"/><glyph d="M497 720V716L361 575H292L407 720H497ZM511 304Q481 95 482 92 482 79 489 72T506 65Q517 65 530 69T553 79L544 10Q531 2 511-4T467-10Q391-10 391 64V74Q360 39 314 15T217-10Q144-10 101 25T58 131Q58 170 109 511H203L179 346Q154 180 155 155 155 65 248 65 283 65 316 84T374 135 404 207L447 511H541L511 304Z" glyph-name="uacute" horiz-adv-x="617" unicode="&#xfa;"/><glyph d="M393 720 507 575H427L346 664 238 575H158L315 720H393ZM511 304Q481 95 482 92 482 79 489 72T506 65Q517 65 530 69T553 79L544 10Q531 2 511-4T467-10Q391-10 391 64V74Q360 39 314 15T217-10Q144-10 101 25T58 131Q58 170 109 511H203L179 346Q154 180 155 155 155 65 248 65 283 65 316 84T374 135 404 207L447 511H541L511 304Z" glyph-name="ucircumflex" horiz-adv-x="617" unicode="&#xfb;"/><glyph d="M298 720 285 622H195L208 720H298ZM487 720 474 622H383L396 720H487ZM511 304Q481 95 482 92 482 79 489 72T506 65Q517 65 530 69T553 79L544 10Q531 2 511-4T467-10Q391-10 391 64V74Q360 39 314 15T217-10Q144-10 101 25T58 131Q58 170 109 511H203L179 346Q154 180 155 155 155 65 248 65 283 65 316 84T374 135 404 207L447 511H541L511 304Z" glyph-name="udieresis" horiz-adv-x="617" unicode="&#xfc;"/><glyph d="M459 720V716L323 575H254L369 720H459ZM269 20Q217-78 167-132T52-186Q11-186-19-172L-9-95Q2-101 18-105T49-109Q75-109 107-85T169 5L42 511H141L235 134H239L437 511H529L269 20Z" glyph-name="yacute" horiz-adv-x="510" unicode="&#xfd;"/><glyph d="M201 455Q262 521 357 521 435 521 483 471T531 320Q531 244 507 169T428 42 289-10Q237-10 201 10T146 65L111-181H17L144 720H238L201 455ZM257 446T212 384 167 193Q167 124 195 95T276 65Q335 65 371 103T422 199 438 317Q438 386 410 416T329 446Q257 446 212 384Z" glyph-name="thorn" horiz-adv-x="582" unicode="&#xfe;"/><glyph d="M260 719 247 621H157L170 719H260ZM449 719 436 621H345L358 719H449ZM269 20Q217-78 167-132T52-186Q11-186-19-172L-9-95Q2-101 18-105T49-109Q75-109 107-85T169 5L42 511H141L235 134H239L437 511H529L269 20Z" glyph-name="ydieresis" horiz-adv-x="510" unicode="&#xff;"/><glyph d="M571 318 558 223H60L72 318H571Z" glyph-name="endash" horiz-adv-x="637" unicode="&#x2013;"/><glyph d="M984 317 971 223H63L75 317H984Z" glyph-name="emdash" horiz-adv-x="1056" unicode="&#x2014;"/><glyph d="M203 686 159 562H200L184 451H83L95 536 151 686H203Z" glyph-name="quoteleft" horiz-adv-x="224" unicode="&#x2018;"/><glyph d="M216 686 204 601 148 451H96L140 575H99L115 686H216Z" glyph-name="quoteright" horiz-adv-x="218" unicode="&#x2019;"/><glyph d="M144 111 132 26 76-124H24L68 0H27L43 111H144Z" glyph-name="quotesinglbase" horiz-adv-x="237" unicode="&#x201a;"/><glyph d="M203 686 159 562H200L184 451H83L95 536 151 686H203ZM345 686 301 562H342L326 451H225L237 536 293 686H345Z" glyph-name="quotedblleft" horiz-adv-x="366" unicode="&#x201c;"/><glyph d="M216 686 204 601 148 451H96L140 575H99L115 686H216ZM358 686 346 601 290 451H238L282 575H241L257 686H358Z" glyph-name="quotedblright" horiz-adv-x="360" unicode="&#x201d;"/><glyph d="M144 111 132 26 76-124H24L68 0H27L43 111H144ZM286 111 274 26 218-124H166L210 0H169L185 111H286Z" glyph-name="quotedblbase" horiz-adv-x="379" unicode="&#x201e;"/><glyph d="M384 496T421 459 458 364Q458 320 437 281T377 216 284 191Q228 191 192 228T155 322Q155 368 177 408T239 472 327 496Q384 496 421 459Z" glyph-name="bullet" horiz-adv-x="600" unicode="&#x2022;"/><glyph d="M251 511 134 337 202 163H151L55 337 200 511H251Z" glyph-name="guilsinglleft" horiz-adv-x="276" unicode="&#x2039;"/><glyph d="M137 511 236 337 88 163H37L157 337 86 511H137Z" glyph-name="guilsinglright" horiz-adv-x="278" unicode="&#x203a;"/></font>
</defs>
</svg>
